%TF.GenerationSoftware,KiCad,Pcbnew,10.0.3*%
%TF.CreationDate,2026-06-15T23:18:04-04:00*%
%TF.ProjectId,tamagotchi 2,74616d61-676f-4746-9368-6920322e6b69,rev?*%
%TF.SameCoordinates,Original*%
%TF.FileFunction,Copper,L2,Bot*%
%TF.FilePolarity,Positive*%
%FSLAX46Y46*%
G04 Gerber Fmt 4.6, Leading zero omitted, Abs format (unit mm)*
G04 Created by KiCad (PCBNEW 10.0.3) date 2026-06-15 23:18:04*
%MOMM*%
%LPD*%
G01*
G04 APERTURE LIST*
G04 Aperture macros list*
%AMRoundRect*
0 Rectangle with rounded corners*
0 $1 Rounding radius*
0 $2 $3 $4 $5 $6 $7 $8 $9 X,Y pos of 4 corners*
0 Add a 4 corners polygon primitive as box body*
4,1,4,$2,$3,$4,$5,$6,$7,$8,$9,$2,$3,0*
0 Add four circle primitives for the rounded corners*
1,1,$1+$1,$2,$3*
1,1,$1+$1,$4,$5*
1,1,$1+$1,$6,$7*
1,1,$1+$1,$8,$9*
0 Add four rect primitives between the rounded corners*
20,1,$1+$1,$2,$3,$4,$5,0*
20,1,$1+$1,$4,$5,$6,$7,0*
20,1,$1+$1,$6,$7,$8,$9,0*
20,1,$1+$1,$8,$9,$2,$3,0*%
G04 Aperture macros list end*
%TA.AperFunction,ComponentPad*%
%ADD10R,1.700000X1.700000*%
%TD*%
%TA.AperFunction,ComponentPad*%
%ADD11C,1.700000*%
%TD*%
%TA.AperFunction,ComponentPad*%
%ADD12C,1.600000*%
%TD*%
%TA.AperFunction,ComponentPad*%
%ADD13C,0.900000*%
%TD*%
%TA.AperFunction,ComponentPad*%
%ADD14C,2.500000*%
%TD*%
%TA.AperFunction,ComponentPad*%
%ADD15C,1.800000*%
%TD*%
%TA.AperFunction,ComponentPad*%
%ADD16C,2.200000*%
%TD*%
%TA.AperFunction,ComponentPad*%
%ADD17R,0.900000X1.600000*%
%TD*%
%TA.AperFunction,ComponentPad*%
%ADD18O,0.900000X1.600000*%
%TD*%
%TA.AperFunction,ComponentPad*%
%ADD19C,1.524000*%
%TD*%
%TA.AperFunction,SMDPad,CuDef*%
%ADD20RoundRect,0.152400X1.063600X0.609600X-1.063600X0.609600X-1.063600X-0.609600X1.063600X-0.609600X0*%
%TD*%
%TA.AperFunction,SMDPad,CuDef*%
%ADD21RoundRect,0.152400X-1.063600X-0.609600X1.063600X-0.609600X1.063600X0.609600X-1.063600X0.609600X0*%
%TD*%
%TA.AperFunction,ComponentPad*%
%ADD22RoundRect,0.275000X0.975000X0.275000X-0.975000X0.275000X-0.975000X-0.275000X0.975000X-0.275000X0*%
%TD*%
%TA.AperFunction,SMDPad,CuDef*%
%ADD23C,1.700000*%
%TD*%
%TA.AperFunction,ComponentPad*%
%ADD24C,1.400000*%
%TD*%
%TA.AperFunction,ViaPad*%
%ADD25C,0.600000*%
%TD*%
%TA.AperFunction,Conductor*%
%ADD26C,0.200000*%
%TD*%
G04 APERTURE END LIST*
D10*
%TO.P,BT1,1,+_1*%
%TO.N,Net-(BT1-+)*%
X136775000Y-96500000D03*
D11*
%TO.P,BT1,2,-_2*%
%TO.N,GND*%
X134235000Y-96500000D03*
%TD*%
D12*
%TO.P,SW3,1,1_1*%
%TO.N,Net-(U3-GPIO9_D9_MISO)*%
X157000000Y-107500000D03*
X161800000Y-107500000D03*
%TO.P,SW3,2,2_2*%
%TO.N,GND*%
X157000000Y-110500000D03*
X161800000Y-110500000D03*
%TD*%
D13*
%TO.P,SW4,*%
%TO.N,*%
X172212500Y-128300000D03*
X172212500Y-121500000D03*
%TD*%
D12*
%TO.P,SW2,1,1_1*%
%TO.N,Net-(U3-GPIO8_D8_SCK)*%
X161800000Y-122500000D03*
X157000000Y-122500000D03*
%TO.P,SW2,2,2_2*%
%TO.N,GND*%
X161800000Y-125500000D03*
X157000000Y-125500000D03*
%TD*%
%TO.P,SW1,1,1_1*%
%TO.N,Net-(U3-GPIO20_D7_RX)*%
X161800000Y-115000000D03*
X157000000Y-115000000D03*
%TO.P,SW1,2,2_2*%
%TO.N,GND*%
X161800000Y-118000000D03*
X157000000Y-118000000D03*
%TD*%
D14*
%TO.P,U1,*%
%TO.N,*%
X123899998Y-105200000D03*
X123899998Y-129000000D03*
X147100002Y-105200000D03*
X147100002Y-129000000D03*
D15*
%TO.P,U1,1,GND_1*%
%TO.N,GND*%
X131690000Y-105200000D03*
%TO.P,U1,2,VCC_2*%
%TO.N,+3V3*%
X134230000Y-105200000D03*
%TO.P,U1,3,SCL_3*%
%TO.N,Net-(U1-SCL)*%
X136770000Y-105200000D03*
%TO.P,U1,4,SDA_4*%
%TO.N,Net-(U1-SDA)*%
X139310000Y-105200000D03*
%TD*%
D16*
%TO.P,BUZZER1,1,+_1*%
%TO.N,Net-(BUZZER1-+)*%
X115250000Y-103750000D03*
%TO.P,BUZZER1,2,-_2*%
%TO.N,GND*%
X115250000Y-97250000D03*
%TD*%
D17*
%TO.P,U4,1,GND_1*%
%TO.N,GND*%
X157460000Y-59500000D03*
D18*
%TO.P,U4,2,DQ_2*%
%TO.N,Net-(U3-GPIO5_A3_D3)*%
X158730000Y-59500000D03*
%TO.P,U4,3,V_{DD}_3*%
%TO.N,+3V3*%
X160000000Y-59500000D03*
%TD*%
D19*
%TO.P,U3,1,GPIO2_A0_D0_1*%
%TO.N,Net-(J1-Pin_1)*%
X129260000Y-150024000D03*
D20*
X128425000Y-150024000D03*
D19*
%TO.P,U3,2,GPIO3_A1_D1_2*%
%TO.N,Net-(J1-Pin_3)*%
X129260000Y-147484000D03*
D20*
X128425000Y-147484000D03*
D19*
%TO.P,U3,3,GPIO4_A2_D2_3*%
%TO.N,Net-(BUZZER1-+)*%
X129260000Y-144944000D03*
D20*
X128425000Y-144944000D03*
D19*
%TO.P,U3,4,GPIO5_A3_D3_4*%
%TO.N,Net-(U3-GPIO5_A3_D3)*%
X129260000Y-142404000D03*
D20*
X128425000Y-142404000D03*
D19*
%TO.P,U3,5,GPIO6_D4_SDA_5*%
%TO.N,Net-(U1-SDA)*%
X129260000Y-139864000D03*
D20*
X128425000Y-139864000D03*
D19*
%TO.P,U3,6,GPIO7_D5_SCL_6*%
%TO.N,Net-(U1-SCL)*%
X129260000Y-137324000D03*
D20*
X128425000Y-137324000D03*
D19*
%TO.P,U3,7,GPIO21_D6_TX_7*%
%TO.N,unconnected-(U3-GPIO21_D6_TX-Pad7)*%
X129260000Y-134784000D03*
D20*
%TO.N,unconnected-(U3-GPIO21_D6_TX-Pad7)_1*%
X128425000Y-134784000D03*
D21*
%TO.P,U3,8,GPIO20_D7_RX_8*%
%TO.N,Net-(U3-GPIO20_D7_RX)*%
X145335000Y-134784000D03*
D19*
X144500000Y-134784000D03*
D21*
%TO.P,U3,9,GPIO8_D8_SCK_9*%
%TO.N,Net-(U3-GPIO8_D8_SCK)*%
X145335000Y-137324000D03*
D19*
X144500000Y-137324000D03*
D21*
%TO.P,U3,10,GPIO9_D9_MISO_10*%
%TO.N,Net-(U3-GPIO9_D9_MISO)*%
X145335000Y-139864000D03*
D19*
X144500000Y-139864000D03*
D21*
%TO.P,U3,11,GPIO10_D10_MOSI_11*%
%TO.N,unconnected-(U3-GPIO10_D10_MOSI-Pad11)_1*%
X145335000Y-142404000D03*
D19*
%TO.N,unconnected-(U3-GPIO10_D10_MOSI-Pad11)*%
X144500000Y-142404000D03*
D21*
%TO.P,U3,12,3V3_12*%
%TO.N,+3V3*%
X145335000Y-144944000D03*
D19*
X144500000Y-144944000D03*
D21*
%TO.P,U3,13,GND_13*%
%TO.N,GND*%
X145335000Y-147484000D03*
D19*
X144500000Y-147484000D03*
D21*
%TO.P,U3,14,VBUS_14*%
%TO.N,+5V*%
X145335000Y-150024000D03*
D19*
X144500000Y-150024000D03*
D22*
%TO.P,U3,15,BAT_15*%
%TO.N,+BATT*%
X132435000Y-142790000D03*
%TO.P,U3,16,GND_16*%
%TO.N,GND*%
X132435000Y-144695000D03*
D23*
%TO.P,U3,17,GPIO5_MTDI_17*%
%TO.N,unconnected-(U3-GPIO5_MTDI-Pad17)*%
X135610000Y-151040000D03*
%TO.P,U3,18,GPIO7_MTDO_18*%
%TO.N,unconnected-(U3-GPIO7_MTDO-Pad18)*%
X138150000Y-151040000D03*
%TO.P,U3,19,CHIP_EN_19*%
%TO.N,unconnected-(U3-CHIP_EN-Pad19)*%
X135610000Y-148500000D03*
%TO.P,U3,20,GND_20*%
%TO.N,unconnected-(U3-GND-Pad20)*%
X138150000Y-148500000D03*
%TO.P,U3,21,GPIO4_MTMS_21*%
%TO.N,unconnected-(U3-GPIO4_MTMS-Pad21)*%
X135610000Y-145960000D03*
%TO.P,U3,22,GPIO6_MTCK_22*%
%TO.N,unconnected-(U3-GPIO6_MTCK-Pad22)*%
X138150000Y-145960000D03*
%TD*%
D24*
%TO.P,R1,1*%
%TO.N,Net-(U3-GPIO5_A3_D3)*%
X155500000Y-86500000D03*
%TO.P,R1,2*%
%TO.N,+3V3*%
X155500000Y-76000000D03*
%TD*%
D25*
%TO.N,Net-(BT1-+)*%
X146250000Y-99750000D03*
%TO.N,Net-(U3-GPIO9_D9_MISO)*%
X154000000Y-127500000D03*
%TO.N,+BATT*%
X157000000Y-132500000D03*
%TO.N,+3V3*%
X134250000Y-129250000D03*
X110500000Y-106000000D03*
%TO.N,Net-(J1-Pin_1)*%
X120500000Y-127500000D03*
%TO.N,Net-(BUZZER1-+)*%
X121500000Y-131500000D03*
%TO.N,Net-(U3-GPIO5_A3_D3)*%
X151000000Y-108000000D03*
%TD*%
%TO.N,Net-(BT1-+)*%
D26*
X146250000Y-99750000D02*
X143000000Y-96500000D01*
X143000000Y-96500000D02*
X136775000Y-96500000D01*
%TO.N,Net-(U3-GPIO9_D9_MISO)*%
X154000000Y-110500000D02*
X157000000Y-107500000D01*
X154000000Y-127500000D02*
X154000000Y-110500000D01*
%TO.N,+BATT*%
X145000000Y-132500000D02*
X134710000Y-142790000D01*
X134710000Y-142790000D02*
X132435000Y-142790000D01*
X157000000Y-132500000D02*
X145000000Y-132500000D01*
%TO.N,Net-(U3-GPIO20_D7_RX)*%
X161800000Y-115000000D02*
X161600000Y-115200000D01*
%TO.N,+3V3*%
X134250000Y-129250000D02*
X134230000Y-129230000D01*
X110500000Y-106000000D02*
X120907966Y-106000000D01*
X120907966Y-106000000D02*
X123257966Y-103650000D01*
X134230000Y-129230000D02*
X134230000Y-105200000D01*
X123257966Y-103650000D02*
X132680000Y-103650000D01*
X132680000Y-103650000D02*
X134230000Y-105200000D01*
%TO.N,Net-(U1-SCL)*%
X136770000Y-105200000D02*
X136770000Y-129814000D01*
X136770000Y-129814000D02*
X129260000Y-137324000D01*
%TO.N,Net-(U1-SDA)*%
X139310000Y-129814000D02*
X129260000Y-139864000D01*
X139310000Y-105200000D02*
X139310000Y-129814000D01*
%TO.N,Net-(J1-Pin_1)*%
X126024000Y-150024000D02*
X120500000Y-144500000D01*
X120500000Y-144500000D02*
X120500000Y-127500000D01*
X129260000Y-150024000D02*
X126024000Y-150024000D01*
%TO.N,Net-(BUZZER1-+)*%
X121500000Y-131500000D02*
X121500000Y-138261630D01*
X121500000Y-138261630D02*
X128182370Y-144944000D01*
X128182370Y-144944000D02*
X129260000Y-144944000D01*
%TO.N,Net-(U3-GPIO5_A3_D3)*%
X151000000Y-108000000D02*
X151000000Y-91000000D01*
X158730000Y-59500000D02*
X158730000Y-83270000D01*
X158730000Y-83270000D02*
X155500000Y-86500000D01*
X151000000Y-91000000D02*
X155500000Y-86500000D01*
%TD*%
%TA.AperFunction,Conductor*%
%TO.N,GND*%
G36*
X118164988Y-56501323D02*
G01*
X118364280Y-56524400D01*
X118373071Y-56525740D01*
X118583285Y-56565535D01*
X118587404Y-56566388D01*
X118868240Y-56629581D01*
X118873197Y-56630806D01*
X119537103Y-56809393D01*
X119542693Y-56811039D01*
X120266013Y-57042872D01*
X120271233Y-57044676D01*
X121009305Y-57318374D01*
X121014421Y-57320402D01*
X121740677Y-57627312D01*
X121745792Y-57629611D01*
X122445130Y-57963420D01*
X122450299Y-57966038D01*
X123114200Y-58322042D01*
X123119405Y-58324998D01*
X123743141Y-58699563D01*
X123748401Y-58702905D01*
X124329654Y-59093221D01*
X124334954Y-59096987D01*
X124570593Y-59273903D01*
X124872758Y-59500766D01*
X124878083Y-59504996D01*
X124884869Y-59510699D01*
X125372657Y-59920615D01*
X125377943Y-59925322D01*
X125608966Y-60143126D01*
X125834105Y-60355384D01*
X125835143Y-60356362D01*
X125838365Y-60359512D01*
X125896369Y-60418329D01*
X125970879Y-60493883D01*
X125973689Y-60496827D01*
X126461442Y-61025012D01*
X126465762Y-61029946D01*
X126922916Y-61580782D01*
X126925987Y-61584636D01*
X127077256Y-61782394D01*
X127144865Y-61870780D01*
X127146796Y-61873374D01*
X127229318Y-61987312D01*
X127365059Y-62174727D01*
X127366887Y-62177320D01*
X127387925Y-62207994D01*
X127586506Y-62497536D01*
X127588221Y-62500104D01*
X127615417Y-62541954D01*
X127785064Y-62803015D01*
X127806172Y-62835496D01*
X127807746Y-62837983D01*
X127929226Y-63035156D01*
X128031706Y-63201491D01*
X128033175Y-63203938D01*
X128256977Y-63586643D01*
X128258313Y-63588988D01*
X128314537Y-63690161D01*
X128493332Y-64011900D01*
X128494554Y-64014154D01*
X128731092Y-64461333D01*
X128732199Y-64463474D01*
X128986583Y-64967874D01*
X128987573Y-64969882D01*
X129245663Y-65505466D01*
X129246548Y-65507344D01*
X129531849Y-66125657D01*
X129532631Y-66127386D01*
X129824832Y-66787010D01*
X129825524Y-66788602D01*
X130021812Y-67249000D01*
X130146661Y-67541838D01*
X130160488Y-67574268D01*
X130161077Y-67575675D01*
X130204595Y-67681408D01*
X130507982Y-68418531D01*
X130508509Y-68419830D01*
X130929207Y-69475743D01*
X130929654Y-69476883D01*
X131371769Y-70619230D01*
X131372208Y-70620380D01*
X132153581Y-72700419D01*
X132153946Y-72701404D01*
X133014509Y-75052556D01*
X133014784Y-75053314D01*
X135010203Y-80616883D01*
X135010202Y-80616883D01*
X135013913Y-80627230D01*
X135017506Y-80648464D01*
X135036070Y-80689006D01*
X135037848Y-80693962D01*
X135037851Y-80693970D01*
X135051130Y-80730993D01*
X135051131Y-80730995D01*
X135057143Y-80739668D01*
X135063402Y-80748698D01*
X135072372Y-80768285D01*
X135100801Y-80802646D01*
X135101211Y-80803238D01*
X135103803Y-80806976D01*
X135103803Y-80806978D01*
X135126206Y-80839294D01*
X135126210Y-80839299D01*
X135142648Y-80853225D01*
X135156380Y-80869821D01*
X135192729Y-80895649D01*
X135226763Y-80924481D01*
X135246247Y-80933678D01*
X135263806Y-80946155D01*
X135305603Y-80961696D01*
X135310333Y-80963929D01*
X135310376Y-80963949D01*
X135310378Y-80963950D01*
X135345938Y-80980736D01*
X135356317Y-80982616D01*
X135356326Y-80982618D01*
X135367141Y-80984577D01*
X135387327Y-80992084D01*
X135431712Y-80996277D01*
X135436905Y-80997218D01*
X135470804Y-81003359D01*
X135475611Y-81004230D01*
X135497082Y-81002453D01*
X135518527Y-81004479D01*
X135562495Y-80997039D01*
X135606946Y-80993361D01*
X135627226Y-80986087D01*
X135648464Y-80982494D01*
X135689006Y-80963929D01*
X135730993Y-80948871D01*
X135748700Y-80936595D01*
X135768285Y-80927628D01*
X135802642Y-80899201D01*
X135839298Y-80873791D01*
X135853224Y-80857351D01*
X135869821Y-80843620D01*
X135895649Y-80807270D01*
X135924481Y-80773237D01*
X135933678Y-80753752D01*
X135946155Y-80736194D01*
X135961695Y-80694399D01*
X135980736Y-80654063D01*
X135982619Y-80643665D01*
X135988404Y-80622568D01*
X137742356Y-75905513D01*
X154299500Y-75905513D01*
X154299500Y-76094486D01*
X154329059Y-76281118D01*
X154387454Y-76460836D01*
X154473240Y-76629199D01*
X154584310Y-76782073D01*
X154717927Y-76915690D01*
X154870801Y-77026760D01*
X154950347Y-77067290D01*
X155039163Y-77112545D01*
X155039165Y-77112545D01*
X155039168Y-77112547D01*
X155135497Y-77143846D01*
X155218881Y-77170940D01*
X155405514Y-77200500D01*
X155405519Y-77200500D01*
X155594486Y-77200500D01*
X155781118Y-77170940D01*
X155960832Y-77112547D01*
X156129199Y-77026760D01*
X156282073Y-76915690D01*
X156415690Y-76782073D01*
X156526760Y-76629199D01*
X156612547Y-76460832D01*
X156670940Y-76281118D01*
X156700500Y-76094486D01*
X156700500Y-75905513D01*
X156670940Y-75718881D01*
X156612545Y-75539163D01*
X156526759Y-75370800D01*
X156415690Y-75217927D01*
X156282073Y-75084310D01*
X156129199Y-74973240D01*
X155960836Y-74887454D01*
X155781118Y-74829059D01*
X155594486Y-74799500D01*
X155594481Y-74799500D01*
X155405519Y-74799500D01*
X155405514Y-74799500D01*
X155218881Y-74829059D01*
X155039163Y-74887454D01*
X154870800Y-74973240D01*
X154783579Y-75036610D01*
X154717927Y-75084310D01*
X154717925Y-75084312D01*
X154717924Y-75084312D01*
X154584312Y-75217924D01*
X154584312Y-75217925D01*
X154584310Y-75217927D01*
X154536610Y-75283579D01*
X154473240Y-75370800D01*
X154387454Y-75539163D01*
X154329059Y-75718881D01*
X154299500Y-75905513D01*
X137742356Y-75905513D01*
X138058753Y-75054598D01*
X138948515Y-72700805D01*
X138948712Y-72700290D01*
X139753384Y-70619679D01*
X139753863Y-70618460D01*
X140487059Y-68787934D01*
X140487870Y-68785961D01*
X141163935Y-67180484D01*
X141164734Y-67178633D01*
X141484134Y-66456300D01*
X141484798Y-66454825D01*
X141795402Y-65779020D01*
X141796198Y-65777328D01*
X142098839Y-65146965D01*
X142099791Y-65145030D01*
X142396431Y-64556516D01*
X142397528Y-64554392D01*
X142641581Y-64093382D01*
X142642700Y-64091317D01*
X142884822Y-63655465D01*
X142886017Y-63653367D01*
X143114957Y-63261341D01*
X143116298Y-63259104D01*
X143345015Y-62887050D01*
X143346495Y-62884706D01*
X143567782Y-62543176D01*
X143569379Y-62540776D01*
X143792095Y-62214902D01*
X143793813Y-62212456D01*
X144014142Y-61907039D01*
X144015976Y-61904565D01*
X144239245Y-61611421D01*
X144241164Y-61608969D01*
X144467030Y-61328109D01*
X144469045Y-61325671D01*
X144696834Y-61057300D01*
X144700032Y-61053680D01*
X145190184Y-60520420D01*
X145193035Y-60517422D01*
X145348585Y-60359337D01*
X145351833Y-60356158D01*
X145360652Y-60347844D01*
X156510000Y-60347844D01*
X156516401Y-60407372D01*
X156516403Y-60407379D01*
X156566645Y-60542086D01*
X156566649Y-60542093D01*
X156652809Y-60657187D01*
X156652812Y-60657190D01*
X156767906Y-60743350D01*
X156767913Y-60743354D01*
X156902620Y-60793596D01*
X156902627Y-60793598D01*
X156962155Y-60799999D01*
X156962172Y-60800000D01*
X157210000Y-60800000D01*
X157210000Y-59750000D01*
X156510000Y-59750000D01*
X156510000Y-60347844D01*
X145360652Y-60347844D01*
X145808841Y-59925298D01*
X145814091Y-59920623D01*
X146308677Y-59504997D01*
X146313972Y-59500789D01*
X146851817Y-59096979D01*
X146857073Y-59093244D01*
X147438364Y-58702902D01*
X147443585Y-58699584D01*
X147522565Y-58652155D01*
X156510000Y-58652155D01*
X156510000Y-59250000D01*
X157210000Y-59250000D01*
X157210000Y-58200000D01*
X156962155Y-58200000D01*
X156902627Y-58206401D01*
X156902620Y-58206403D01*
X156767913Y-58256645D01*
X156767906Y-58256649D01*
X156652812Y-58342809D01*
X156652809Y-58342812D01*
X156566649Y-58457906D01*
X156566645Y-58457913D01*
X156516403Y-58592620D01*
X156516401Y-58592627D01*
X156510000Y-58652155D01*
X147522565Y-58652155D01*
X148067365Y-58324992D01*
X148072535Y-58322056D01*
X148736471Y-57966033D01*
X148741606Y-57963432D01*
X149440985Y-57629604D01*
X149446066Y-57627319D01*
X150172348Y-57320399D01*
X150177432Y-57318383D01*
X150915548Y-57044669D01*
X150920741Y-57042874D01*
X151644066Y-56811039D01*
X151649633Y-56809400D01*
X152313580Y-56630802D01*
X152318515Y-56629583D01*
X152599366Y-56566385D01*
X152603462Y-56565537D01*
X152813693Y-56525739D01*
X152822480Y-56524400D01*
X152932380Y-56511674D01*
X153021775Y-56501323D01*
X153036038Y-56500500D01*
X155438238Y-56500500D01*
X155462527Y-56502902D01*
X155679540Y-56546250D01*
X156560552Y-56723362D01*
X156561315Y-56723518D01*
X157392966Y-56898175D01*
X157395160Y-56898657D01*
X158176745Y-57077920D01*
X158180273Y-57078785D01*
X158911875Y-57269604D01*
X158916890Y-57271026D01*
X159603363Y-57481430D01*
X159608105Y-57482988D01*
X159926910Y-57594970D01*
X159930555Y-57596316D01*
X160240833Y-57716443D01*
X160244857Y-57718083D01*
X160543142Y-57845824D01*
X160547438Y-57847762D01*
X160834057Y-57983899D01*
X160838680Y-57986217D01*
X161113831Y-58131468D01*
X161118762Y-58134216D01*
X161382913Y-58289429D01*
X161388000Y-58292587D01*
X161641624Y-58458642D01*
X161646783Y-58462210D01*
X161811905Y-58582761D01*
X161890465Y-58640116D01*
X161895655Y-58644120D01*
X162021271Y-58746428D01*
X162123608Y-58829778D01*
X162129883Y-58834888D01*
X162134971Y-58839267D01*
X162171810Y-58872748D01*
X162360350Y-59044103D01*
X162365253Y-59048811D01*
X162436658Y-59121239D01*
X162582283Y-59268952D01*
X162586894Y-59273892D01*
X162684329Y-59384204D01*
X162796057Y-59510699D01*
X162800359Y-59515844D01*
X162977776Y-59740060D01*
X163001955Y-59770616D01*
X163005873Y-59775845D01*
X163110092Y-59922877D01*
X163200220Y-60050030D01*
X163203742Y-60055278D01*
X163390981Y-60350214D01*
X163394094Y-60355392D01*
X163574271Y-60672342D01*
X163576987Y-60677387D01*
X163750161Y-61017705D01*
X163752501Y-61022562D01*
X163918582Y-61387364D01*
X163920577Y-61391994D01*
X164079501Y-61782430D01*
X164081186Y-61786806D01*
X164232837Y-62203877D01*
X164234250Y-62207983D01*
X164378574Y-62652822D01*
X164379748Y-62656652D01*
X164517300Y-63132465D01*
X164518021Y-63135065D01*
X164714542Y-63874833D01*
X164715022Y-63876696D01*
X164886165Y-64563694D01*
X164886676Y-64565825D01*
X165015214Y-65123660D01*
X165015732Y-65126016D01*
X165125878Y-65650460D01*
X165126396Y-65653063D01*
X165211505Y-66106317D01*
X165211998Y-66109121D01*
X165282900Y-66541174D01*
X165283356Y-66544180D01*
X165337776Y-66935633D01*
X165338172Y-66938777D01*
X165380912Y-67317062D01*
X165381238Y-67320334D01*
X165412036Y-67678061D01*
X165412279Y-67681408D01*
X165432696Y-68028130D01*
X165432890Y-68033182D01*
X165445459Y-68729704D01*
X165445405Y-68736221D01*
X165420534Y-69456286D01*
X165420193Y-69462141D01*
X165354295Y-70265691D01*
X165353809Y-70270480D01*
X165235333Y-71247689D01*
X165234880Y-71251041D01*
X165032957Y-72606104D01*
X165032753Y-72607426D01*
X164864284Y-73659981D01*
X164862954Y-73668293D01*
X164862800Y-73668641D01*
X164852665Y-73732574D01*
X164852665Y-73732575D01*
X164852636Y-73732756D01*
X164841074Y-73804994D01*
X164840917Y-73806686D01*
X164505949Y-75919891D01*
X164505845Y-75920539D01*
X164198221Y-77796997D01*
X164197885Y-77798948D01*
X163771614Y-80162069D01*
X163771325Y-80163615D01*
X163213068Y-83048564D01*
X163212818Y-83049817D01*
X162524223Y-86421603D01*
X162524005Y-86422648D01*
X161747298Y-90065769D01*
X161747107Y-90066651D01*
X161079387Y-93090383D01*
X161079259Y-93090956D01*
X161019877Y-93353945D01*
X161018269Y-93361063D01*
X161006128Y-93395440D01*
X161003820Y-93425055D01*
X161001849Y-93433787D01*
X161001848Y-93433796D01*
X160997278Y-93454040D01*
X160997277Y-93454042D01*
X160998436Y-93483178D01*
X160998160Y-93497731D01*
X160995894Y-93526827D01*
X161001332Y-93556037D01*
X161002512Y-93585720D01*
X161013339Y-93620534D01*
X161014674Y-93627703D01*
X161014673Y-93627705D01*
X161020012Y-93656379D01*
X161020015Y-93656389D01*
X161028959Y-93675102D01*
X161032827Y-93683195D01*
X161041649Y-93711558D01*
X161061117Y-93742383D01*
X161064264Y-93748966D01*
X161076842Y-93775280D01*
X161076844Y-93775284D01*
X161076845Y-93775285D01*
X161090330Y-93791049D01*
X161100939Y-93805432D01*
X161112022Y-93822979D01*
X161112024Y-93822981D01*
X161133454Y-93842773D01*
X161143549Y-93853259D01*
X162318211Y-95226366D01*
X162833526Y-95828738D01*
X162834060Y-95829842D01*
X162876352Y-95878801D01*
X162876443Y-95878907D01*
X162876546Y-95879026D01*
X162918400Y-95927951D01*
X162918402Y-95927953D01*
X162921647Y-95931745D01*
X162925350Y-95935522D01*
X163246252Y-96307007D01*
X163437859Y-96528817D01*
X163437846Y-96528827D01*
X163438007Y-96528989D01*
X163950144Y-97124071D01*
X164729586Y-98029751D01*
X164730313Y-98030603D01*
X165309746Y-98716306D01*
X165310673Y-98717416D01*
X165853617Y-99375349D01*
X165854883Y-99376908D01*
X166366312Y-100017513D01*
X166367880Y-100019519D01*
X166853379Y-100653936D01*
X166855176Y-100656345D01*
X167320396Y-101295798D01*
X167322324Y-101298524D01*
X167773105Y-101954558D01*
X167775055Y-101957484D01*
X168217150Y-102641655D01*
X168219022Y-102644644D01*
X168658159Y-103368615D01*
X168659879Y-103371540D01*
X169093002Y-104131758D01*
X169101641Y-104146920D01*
X169103156Y-104149662D01*
X169441354Y-104779901D01*
X169552901Y-104987771D01*
X169554208Y-104990273D01*
X170017360Y-105902626D01*
X170018429Y-105904786D01*
X170500044Y-106902183D01*
X170500944Y-106904089D01*
X171006315Y-107997788D01*
X171007045Y-107999398D01*
X171511075Y-109132329D01*
X171519981Y-109161678D01*
X171715326Y-110295476D01*
X171715496Y-110296492D01*
X171909796Y-111483068D01*
X171909963Y-111484113D01*
X172088169Y-112633812D01*
X172088331Y-112634887D01*
X172253141Y-113763465D01*
X172253297Y-113764572D01*
X172402465Y-114854699D01*
X172402616Y-114855840D01*
X172538793Y-115924829D01*
X172538937Y-115926007D01*
X172660143Y-116955978D01*
X172660280Y-116957193D01*
X172768926Y-117966079D01*
X172769055Y-117967335D01*
X172863469Y-118936670D01*
X172863589Y-118937969D01*
X172945908Y-119886417D01*
X172946017Y-119887761D01*
X173003387Y-120644168D01*
X172988829Y-120712504D01*
X172939636Y-120762122D01*
X172871428Y-120777267D01*
X172810851Y-120756648D01*
X172662737Y-120657681D01*
X172662728Y-120657676D01*
X172489751Y-120586027D01*
X172489743Y-120586025D01*
X172306120Y-120549500D01*
X172306116Y-120549500D01*
X172118884Y-120549500D01*
X172118879Y-120549500D01*
X171935256Y-120586025D01*
X171935248Y-120586027D01*
X171762271Y-120657676D01*
X171762262Y-120657681D01*
X171606592Y-120761697D01*
X171606588Y-120761700D01*
X171474200Y-120894088D01*
X171474197Y-120894092D01*
X171370181Y-121049762D01*
X171370176Y-121049771D01*
X171298527Y-121222748D01*
X171298525Y-121222756D01*
X171262000Y-121406379D01*
X171262000Y-121593620D01*
X171298525Y-121777243D01*
X171298527Y-121777251D01*
X171370176Y-121950228D01*
X171370181Y-121950237D01*
X171474197Y-122105907D01*
X171474200Y-122105911D01*
X171606588Y-122238299D01*
X171606592Y-122238302D01*
X171762262Y-122342318D01*
X171762268Y-122342321D01*
X171762269Y-122342322D01*
X171935249Y-122413973D01*
X172118879Y-122450499D01*
X172118883Y-122450500D01*
X172118884Y-122450500D01*
X172306117Y-122450500D01*
X172306118Y-122450499D01*
X172489751Y-122413973D01*
X172662731Y-122342322D01*
X172818408Y-122238302D01*
X172890515Y-122166194D01*
X172951836Y-122132711D01*
X173021528Y-122137695D01*
X173077462Y-122179566D01*
X173101879Y-122245030D01*
X173102022Y-122247334D01*
X173117267Y-122535844D01*
X173117337Y-122537341D01*
X173151063Y-123365369D01*
X173151117Y-123366922D01*
X173173354Y-124155914D01*
X173173389Y-124157527D01*
X173185047Y-124926509D01*
X173185061Y-124928186D01*
X173186254Y-125658699D01*
X173186244Y-125660443D01*
X173177408Y-126371255D01*
X173177373Y-126373071D01*
X173159136Y-127046527D01*
X173159070Y-127048416D01*
X173136322Y-127585606D01*
X173113819Y-127651753D01*
X173059126Y-127695233D01*
X172989609Y-127702241D01*
X172927338Y-127670553D01*
X172924752Y-127668041D01*
X172818411Y-127561700D01*
X172818407Y-127561697D01*
X172662737Y-127457681D01*
X172662728Y-127457676D01*
X172489751Y-127386027D01*
X172489743Y-127386025D01*
X172306120Y-127349500D01*
X172306116Y-127349500D01*
X172118884Y-127349500D01*
X172118879Y-127349500D01*
X171935256Y-127386025D01*
X171935248Y-127386027D01*
X171762271Y-127457676D01*
X171762262Y-127457681D01*
X171606592Y-127561697D01*
X171606588Y-127561700D01*
X171474200Y-127694088D01*
X171474197Y-127694092D01*
X171370181Y-127849762D01*
X171370176Y-127849771D01*
X171298527Y-128022748D01*
X171298525Y-128022756D01*
X171262000Y-128206379D01*
X171262000Y-128393620D01*
X171298525Y-128577243D01*
X171298527Y-128577251D01*
X171370176Y-128750228D01*
X171370181Y-128750237D01*
X171474197Y-128905907D01*
X171474200Y-128905911D01*
X171606588Y-129038299D01*
X171606592Y-129038302D01*
X171762262Y-129142318D01*
X171762268Y-129142321D01*
X171762269Y-129142322D01*
X171935249Y-129213973D01*
X172118879Y-129250499D01*
X172118883Y-129250500D01*
X172118884Y-129250500D01*
X172306117Y-129250500D01*
X172306118Y-129250499D01*
X172489751Y-129213973D01*
X172662731Y-129142322D01*
X172818408Y-129038302D01*
X172819602Y-129037108D01*
X172820383Y-129036681D01*
X172823118Y-129034437D01*
X172823543Y-129034955D01*
X172880922Y-129003617D01*
X172950614Y-129008595D01*
X173006551Y-129050462D01*
X173030974Y-129115924D01*
X173030773Y-129136106D01*
X173001605Y-129454146D01*
X173001588Y-129454325D01*
X172898925Y-130556152D01*
X172898814Y-130557293D01*
X172789131Y-131627255D01*
X172788901Y-131629320D01*
X172664950Y-132666771D01*
X172664548Y-132669817D01*
X172518796Y-133677218D01*
X172518321Y-133680240D01*
X172428331Y-134209697D01*
X172427876Y-134212214D01*
X172328004Y-134734367D01*
X172327465Y-134737029D01*
X172229814Y-135193177D01*
X172229189Y-135195939D01*
X172122272Y-135645021D01*
X172121552Y-135647895D01*
X172014709Y-136053407D01*
X172013892Y-136056360D01*
X171897960Y-136456012D01*
X171897037Y-136459048D01*
X171779967Y-136827147D01*
X171778938Y-136830240D01*
X171652870Y-137193304D01*
X171651729Y-137196451D01*
X171523636Y-137535516D01*
X171522385Y-137538696D01*
X171385294Y-137873375D01*
X171383927Y-137876582D01*
X171244015Y-138192529D01*
X171242537Y-138195742D01*
X171093588Y-138507743D01*
X171091997Y-138510956D01*
X170939436Y-138808105D01*
X170937737Y-138811299D01*
X170776014Y-139104886D01*
X170774207Y-139108055D01*
X170608027Y-139389794D01*
X170606121Y-139392919D01*
X170430554Y-139671440D01*
X170428550Y-139674517D01*
X170247649Y-139943505D01*
X170245557Y-139946518D01*
X170054969Y-140212563D01*
X170052794Y-140215506D01*
X169855859Y-140473945D01*
X169853612Y-140476807D01*
X169646654Y-140732476D01*
X169644339Y-140735252D01*
X169429871Y-140984950D01*
X169427500Y-140987631D01*
X169202610Y-141234667D01*
X169200190Y-141237250D01*
X168966586Y-141479587D01*
X168964129Y-141482065D01*
X168719627Y-141721822D01*
X168717138Y-141724196D01*
X168462574Y-141960332D01*
X168460066Y-141962596D01*
X168196386Y-142194148D01*
X168192905Y-142197093D01*
X167688703Y-142608036D01*
X167686736Y-142609606D01*
X167047658Y-143109236D01*
X166685311Y-143392518D01*
X166675661Y-143400062D01*
X166675484Y-143400200D01*
X165343440Y-144437709D01*
X165342168Y-144438686D01*
X164721446Y-144909386D01*
X164719831Y-144910591D01*
X164113577Y-145354989D01*
X164111365Y-145356574D01*
X163509168Y-145778000D01*
X163506402Y-145779880D01*
X162897137Y-146182219D01*
X162893915Y-146184276D01*
X162266080Y-146571626D01*
X162262542Y-146573729D01*
X161604470Y-146950176D01*
X161600784Y-146952202D01*
X160900847Y-147321669D01*
X160897177Y-147323529D01*
X160143666Y-147689842D01*
X160140154Y-147691482D01*
X159321589Y-148058249D01*
X159318338Y-148059650D01*
X158423481Y-148430304D01*
X158420555Y-148431473D01*
X157438283Y-148809389D01*
X157435706Y-148810348D01*
X156355037Y-149198843D01*
X156352809Y-149199620D01*
X155162971Y-149601966D01*
X155161072Y-149602591D01*
X153917440Y-150000897D01*
X153905858Y-150004606D01*
X153901437Y-150004897D01*
X153843242Y-150024660D01*
X153842189Y-150024998D01*
X153842187Y-150024998D01*
X153784587Y-150043447D01*
X153782371Y-150044493D01*
X153769341Y-150049760D01*
X152297844Y-150549524D01*
X152294941Y-150550470D01*
X150815432Y-151012657D01*
X150812386Y-151013566D01*
X149384977Y-151419624D01*
X149381787Y-151420486D01*
X148003531Y-151773146D01*
X148000199Y-151773950D01*
X146667939Y-152075862D01*
X146664470Y-152076596D01*
X145374320Y-152330425D01*
X145370729Y-152331076D01*
X144118177Y-152539422D01*
X144114486Y-152539979D01*
X142893342Y-152705492D01*
X142889586Y-152705943D01*
X141691231Y-152831285D01*
X141687478Y-152831620D01*
X140498370Y-152919566D01*
X140494737Y-152919781D01*
X139290023Y-152973399D01*
X139286771Y-152973501D01*
X138007283Y-152996830D01*
X138005348Y-152996851D01*
X137001745Y-152999492D01*
X137000486Y-152999488D01*
X135987680Y-152991867D01*
X135985128Y-152991822D01*
X134511378Y-152950391D01*
X134508018Y-152950251D01*
X133106835Y-152872781D01*
X133104199Y-152872607D01*
X132414685Y-152819734D01*
X132412908Y-152819585D01*
X131724027Y-152756784D01*
X131722246Y-152756609D01*
X131193391Y-152700688D01*
X131014742Y-152681798D01*
X131013007Y-152681602D01*
X130894978Y-152667417D01*
X130301233Y-152596060D01*
X130299507Y-152595840D01*
X129542548Y-152494074D01*
X129540883Y-152493839D01*
X128770776Y-152379653D01*
X128769174Y-152379405D01*
X127912850Y-152240972D01*
X127911345Y-152240719D01*
X127029326Y-152086970D01*
X127027909Y-152086715D01*
X125978465Y-151891201D01*
X125977181Y-151890954D01*
X124879397Y-151674429D01*
X124878153Y-151674177D01*
X123213875Y-151328187D01*
X123212806Y-151327960D01*
X121410842Y-150936752D01*
X121409949Y-150936555D01*
X121224939Y-150894957D01*
X120520397Y-150736546D01*
X117350600Y-150023841D01*
X117329728Y-150017163D01*
X114370110Y-148772418D01*
X114368812Y-148771864D01*
X114351645Y-148764413D01*
X113735414Y-148496947D01*
X112484381Y-147953955D01*
X112482246Y-147953004D01*
X111054529Y-147301071D01*
X111051724Y-147299748D01*
X110475131Y-147018829D01*
X109869072Y-146723553D01*
X109865778Y-146721887D01*
X109762736Y-146667816D01*
X108820946Y-146173612D01*
X108817332Y-146171638D01*
X108812287Y-146168773D01*
X107839244Y-145616144D01*
X107836456Y-145614513D01*
X107821830Y-145605694D01*
X107408687Y-145356574D01*
X107358313Y-145326199D01*
X107356463Y-145325061D01*
X106876760Y-145024224D01*
X106874940Y-145023061D01*
X106379706Y-144700331D01*
X106377953Y-144699166D01*
X105876989Y-144360449D01*
X105875307Y-144359292D01*
X105335604Y-143981291D01*
X105334027Y-143980168D01*
X104780046Y-143579130D01*
X104778572Y-143578046D01*
X104579748Y-143429592D01*
X104150670Y-143109217D01*
X104149352Y-143108219D01*
X104112003Y-143079534D01*
X103759025Y-142808435D01*
X103498770Y-142608550D01*
X103495960Y-142606327D01*
X102993853Y-142197093D01*
X102990372Y-142194147D01*
X102726702Y-141962602D01*
X102724194Y-141960339D01*
X102469609Y-141724183D01*
X102467120Y-141721809D01*
X102324067Y-141581533D01*
X102222610Y-141482045D01*
X102220161Y-141479575D01*
X102127297Y-141383239D01*
X101989927Y-141240732D01*
X101986558Y-141237237D01*
X101984138Y-141234654D01*
X101913112Y-141156634D01*
X101759224Y-140987593D01*
X101756888Y-140984950D01*
X101542452Y-140735287D01*
X101540138Y-140732513D01*
X101333132Y-140476785D01*
X101330911Y-140473958D01*
X101258331Y-140378711D01*
X104149500Y-140378711D01*
X104149500Y-140621288D01*
X104181161Y-140861785D01*
X104243947Y-141096104D01*
X104317803Y-141274408D01*
X104336776Y-141320212D01*
X104458064Y-141530289D01*
X104458066Y-141530292D01*
X104458067Y-141530293D01*
X104605733Y-141722736D01*
X104605739Y-141722743D01*
X104777256Y-141894260D01*
X104777263Y-141894266D01*
X104890321Y-141981018D01*
X104969711Y-142041936D01*
X105179788Y-142163224D01*
X105403900Y-142256054D01*
X105638211Y-142318838D01*
X105818586Y-142342584D01*
X105878711Y-142350500D01*
X105878712Y-142350500D01*
X106121289Y-142350500D01*
X106169388Y-142344167D01*
X106361789Y-142318838D01*
X106596100Y-142256054D01*
X106820212Y-142163224D01*
X107030289Y-142041936D01*
X107222738Y-141894265D01*
X107394265Y-141722738D01*
X107541936Y-141530289D01*
X107663224Y-141320212D01*
X107756054Y-141096100D01*
X107818838Y-140861789D01*
X107850500Y-140621288D01*
X107850500Y-140378712D01*
X107818838Y-140138211D01*
X107756054Y-139903900D01*
X107663224Y-139679788D01*
X107541936Y-139469711D01*
X107436281Y-139332018D01*
X107394266Y-139277263D01*
X107394260Y-139277256D01*
X107222743Y-139105739D01*
X107222736Y-139105733D01*
X107030293Y-138958067D01*
X107030292Y-138958066D01*
X107030289Y-138958064D01*
X106844946Y-138851056D01*
X106820214Y-138836777D01*
X106820205Y-138836773D01*
X106596104Y-138743947D01*
X106474511Y-138711366D01*
X106361789Y-138681162D01*
X106361788Y-138681161D01*
X106361785Y-138681161D01*
X106121289Y-138649500D01*
X106121288Y-138649500D01*
X105878712Y-138649500D01*
X105878711Y-138649500D01*
X105638214Y-138681161D01*
X105403895Y-138743947D01*
X105179794Y-138836773D01*
X105179785Y-138836777D01*
X105030364Y-138923046D01*
X104977343Y-138953658D01*
X104969706Y-138958067D01*
X104777263Y-139105733D01*
X104777256Y-139105739D01*
X104605739Y-139277256D01*
X104605733Y-139277263D01*
X104458067Y-139469706D01*
X104336777Y-139679785D01*
X104336773Y-139679794D01*
X104243947Y-139903895D01*
X104181161Y-140138214D01*
X104149500Y-140378711D01*
X101258331Y-140378711D01*
X101133931Y-140215460D01*
X101131791Y-140212563D01*
X101093876Y-140159637D01*
X100941203Y-139946518D01*
X100939135Y-139943539D01*
X100758153Y-139674431D01*
X100756205Y-139671440D01*
X100580601Y-139392860D01*
X100578768Y-139389854D01*
X100412553Y-139108054D01*
X100410748Y-139104890D01*
X100329870Y-138958067D01*
X100249015Y-138811285D01*
X100247326Y-138808110D01*
X100247323Y-138808105D01*
X100133549Y-138586500D01*
X100094745Y-138510919D01*
X100093154Y-138507706D01*
X100018101Y-138350495D01*
X99944203Y-138195701D01*
X99942764Y-138192572D01*
X99802821Y-137876553D01*
X99801480Y-137873409D01*
X99664361Y-137538661D01*
X99663140Y-137535557D01*
X99535016Y-137196412D01*
X99533900Y-137193334D01*
X99407818Y-136830230D01*
X99406815Y-136827215D01*
X99289718Y-136459034D01*
X99288800Y-136456012D01*
X99172855Y-136056317D01*
X99172067Y-136053466D01*
X99065189Y-135647819D01*
X99064507Y-135645099D01*
X98957563Y-135195907D01*
X98956944Y-135193168D01*
X98956265Y-135189998D01*
X98859295Y-134737029D01*
X98858757Y-134734370D01*
X98811703Y-134488362D01*
X98758872Y-134212156D01*
X98758438Y-134209756D01*
X98668428Y-133680168D01*
X98667974Y-133677283D01*
X98522206Y-132669774D01*
X98521809Y-132666766D01*
X98511305Y-132578846D01*
X98397846Y-131629207D01*
X98397640Y-131627359D01*
X98287946Y-130557293D01*
X98287845Y-130556250D01*
X98278747Y-130458607D01*
X98226053Y-129893056D01*
X98185111Y-129453644D01*
X98185094Y-129453465D01*
X98173665Y-129328846D01*
X98136775Y-128926619D01*
X98136616Y-128924711D01*
X98091656Y-128324794D01*
X98091521Y-128322772D01*
X98089613Y-128290029D01*
X98055897Y-127711577D01*
X102874500Y-127711577D01*
X102874500Y-127908422D01*
X102905290Y-128102826D01*
X102966117Y-128290029D01*
X103040551Y-128436113D01*
X103055476Y-128465405D01*
X103171172Y-128624646D01*
X103310354Y-128763828D01*
X103469595Y-128879524D01*
X103521375Y-128905907D01*
X103644970Y-128968882D01*
X103644972Y-128968882D01*
X103644975Y-128968884D01*
X103745317Y-129001487D01*
X103832173Y-129029709D01*
X104026578Y-129060500D01*
X104026583Y-129060500D01*
X104223422Y-129060500D01*
X104417826Y-129029709D01*
X104458448Y-129016510D01*
X104605025Y-128968884D01*
X104780405Y-128879524D01*
X104939646Y-128763828D01*
X105078828Y-128624646D01*
X105194524Y-128465405D01*
X105283884Y-128290025D01*
X105344709Y-128102826D01*
X105375500Y-127908422D01*
X105375500Y-127711577D01*
X105344709Y-127517173D01*
X105313510Y-127421153D01*
X105283884Y-127329975D01*
X105283882Y-127329972D01*
X105283882Y-127329970D01*
X105194523Y-127154594D01*
X105078828Y-126995354D01*
X104939646Y-126856172D01*
X104780405Y-126740476D01*
X104760357Y-126730261D01*
X104605029Y-126651117D01*
X104417826Y-126590290D01*
X104223422Y-126559500D01*
X104223417Y-126559500D01*
X104026583Y-126559500D01*
X104026578Y-126559500D01*
X103832173Y-126590290D01*
X103644970Y-126651117D01*
X103469594Y-126740476D01*
X103431725Y-126767990D01*
X103310354Y-126856172D01*
X103310352Y-126856174D01*
X103310351Y-126856174D01*
X103171174Y-126995351D01*
X103171174Y-126995352D01*
X103171172Y-126995354D01*
X103133325Y-127047446D01*
X103055476Y-127154594D01*
X102966117Y-127329970D01*
X102905290Y-127517173D01*
X102874500Y-127711577D01*
X98055897Y-127711577D01*
X98055503Y-127704822D01*
X98055405Y-127702859D01*
X98053930Y-127668041D01*
X98027690Y-127048416D01*
X98027624Y-127046526D01*
X98009384Y-126372939D01*
X98009354Y-126371398D01*
X98000515Y-125660391D01*
X98000506Y-125658700D01*
X98000598Y-125602317D01*
X98001699Y-124928094D01*
X98001712Y-124926602D01*
X98013373Y-124157402D01*
X98013403Y-124156043D01*
X98035644Y-123366887D01*
X98035697Y-123365369D01*
X98039747Y-123265932D01*
X98069426Y-122537272D01*
X98069493Y-122535844D01*
X98114336Y-121687206D01*
X98114404Y-121686033D01*
X98171737Y-120797673D01*
X98171816Y-120796550D01*
X98240759Y-119887559D01*
X98240836Y-119886604D01*
X98323182Y-118937842D01*
X98323277Y-118936813D01*
X98417720Y-117967187D01*
X98417817Y-117966236D01*
X98526493Y-116957075D01*
X98526603Y-116956102D01*
X98647839Y-115925873D01*
X98647969Y-115924818D01*
X98784164Y-114855684D01*
X98784265Y-114854923D01*
X98933495Y-113764349D01*
X98933598Y-113763615D01*
X99098457Y-112634701D01*
X99098592Y-112633812D01*
X99276801Y-111484082D01*
X99276964Y-111483069D01*
X99292360Y-111389047D01*
X99471282Y-110296383D01*
X99471434Y-110295476D01*
X99476131Y-110268215D01*
X99666781Y-109161671D01*
X99675685Y-109132329D01*
X100179736Y-107999352D01*
X100180456Y-107997765D01*
X100200043Y-107955377D01*
X102045300Y-107955377D01*
X102045300Y-108152222D01*
X102076090Y-108346626D01*
X102136917Y-108533829D01*
X102224245Y-108705218D01*
X102226276Y-108709205D01*
X102341972Y-108868446D01*
X102481154Y-109007628D01*
X102640395Y-109123324D01*
X102723255Y-109165543D01*
X102815770Y-109212682D01*
X102815772Y-109212682D01*
X102815775Y-109212684D01*
X102875251Y-109232009D01*
X103002973Y-109273509D01*
X103197378Y-109304300D01*
X103197383Y-109304300D01*
X103394222Y-109304300D01*
X103588626Y-109273509D01*
X103775825Y-109212684D01*
X103951205Y-109123324D01*
X104110446Y-109007628D01*
X104249628Y-108868446D01*
X104365324Y-108709205D01*
X104454684Y-108533825D01*
X104515509Y-108346626D01*
X104533428Y-108233489D01*
X104546300Y-108152222D01*
X104546300Y-107955377D01*
X104515509Y-107760973D01*
X104487287Y-107674117D01*
X104454684Y-107573775D01*
X104454682Y-107573772D01*
X104454682Y-107573770D01*
X104365323Y-107398394D01*
X104364781Y-107397648D01*
X104249628Y-107239154D01*
X104110446Y-107099972D01*
X103951205Y-106984276D01*
X103775829Y-106894917D01*
X103588626Y-106834090D01*
X103394222Y-106803300D01*
X103394217Y-106803300D01*
X103197383Y-106803300D01*
X103197378Y-106803300D01*
X103002973Y-106834090D01*
X102815770Y-106894917D01*
X102640394Y-106984276D01*
X102549541Y-107050285D01*
X102481154Y-107099972D01*
X102481152Y-107099974D01*
X102481151Y-107099974D01*
X102341974Y-107239151D01*
X102341974Y-107239152D01*
X102341972Y-107239154D01*
X102292285Y-107307541D01*
X102226276Y-107398394D01*
X102136917Y-107573770D01*
X102076090Y-107760973D01*
X102045300Y-107955377D01*
X100200043Y-107955377D01*
X100226325Y-107898498D01*
X100664371Y-106950499D01*
X100685828Y-106904061D01*
X100686659Y-106902302D01*
X101160427Y-105921153D01*
X109699500Y-105921153D01*
X109699500Y-106078846D01*
X109730261Y-106233489D01*
X109730264Y-106233501D01*
X109790602Y-106379172D01*
X109790609Y-106379185D01*
X109878210Y-106510288D01*
X109878213Y-106510292D01*
X109989707Y-106621786D01*
X109989711Y-106621789D01*
X110120814Y-106709390D01*
X110120827Y-106709397D01*
X110266498Y-106769735D01*
X110266503Y-106769737D01*
X110421153Y-106800499D01*
X110421156Y-106800500D01*
X110421158Y-106800500D01*
X110578844Y-106800500D01*
X110578845Y-106800499D01*
X110733497Y-106769737D01*
X110879179Y-106709394D01*
X110879185Y-106709390D01*
X111010875Y-106621398D01*
X111077553Y-106600520D01*
X111079766Y-106600500D01*
X120821297Y-106600500D01*
X120821313Y-106600501D01*
X120828909Y-106600501D01*
X120987020Y-106600501D01*
X120987023Y-106600501D01*
X121139751Y-106559577D01*
X121210172Y-106518919D01*
X121276682Y-106480520D01*
X121388486Y-106368716D01*
X121388486Y-106368714D01*
X121398690Y-106358511D01*
X121398694Y-106358506D01*
X122035704Y-105721495D01*
X122097025Y-105688012D01*
X122166717Y-105692996D01*
X122222650Y-105734868D01*
X122237944Y-105761725D01*
X122326650Y-105975881D01*
X122326655Y-105975890D01*
X122441390Y-106174617D01*
X122581079Y-106356661D01*
X122581087Y-106356670D01*
X122743328Y-106518911D01*
X122743336Y-106518918D01*
X122743337Y-106518919D01*
X122773202Y-106541835D01*
X122925380Y-106658607D01*
X122925383Y-106658608D01*
X122925386Y-106658611D01*
X123124110Y-106773344D01*
X123124115Y-106773346D01*
X123124121Y-106773349D01*
X123189670Y-106800500D01*
X123336111Y-106861158D01*
X123557760Y-106920548D01*
X123785264Y-106950500D01*
X123785271Y-106950500D01*
X124014725Y-106950500D01*
X124014732Y-106950500D01*
X124242236Y-106920548D01*
X124463885Y-106861158D01*
X124675886Y-106773344D01*
X124874610Y-106658611D01*
X125056659Y-106518919D01*
X125056663Y-106518914D01*
X125056668Y-106518911D01*
X125218908Y-106356670D01*
X125218917Y-106356661D01*
X125358609Y-106174612D01*
X125473342Y-105975888D01*
X125561156Y-105763887D01*
X125620546Y-105542238D01*
X125650498Y-105314734D01*
X125650498Y-105085266D01*
X125620546Y-104857762D01*
X125561156Y-104636113D01*
X125493225Y-104472113D01*
X125472448Y-104421952D01*
X125464979Y-104352483D01*
X125496254Y-104290004D01*
X125556343Y-104254352D01*
X125587009Y-104250500D01*
X130405993Y-104250500D01*
X130473032Y-104270185D01*
X130518787Y-104322989D01*
X130528731Y-104392147D01*
X130506312Y-104447385D01*
X130492612Y-104466240D01*
X130392567Y-104662589D01*
X130324473Y-104872164D01*
X130290000Y-105089818D01*
X130290000Y-105310181D01*
X130324473Y-105527835D01*
X130392567Y-105737410D01*
X130492611Y-105933756D01*
X130538932Y-105997513D01*
X131186630Y-105349815D01*
X131200785Y-105402640D01*
X131269901Y-105522353D01*
X131367647Y-105620099D01*
X131487360Y-105689215D01*
X131540183Y-105703369D01*
X130892485Y-106351065D01*
X130892485Y-106351066D01*
X130956243Y-106397388D01*
X131152589Y-106497432D01*
X131362164Y-106565526D01*
X131579819Y-106600000D01*
X131800181Y-106600000D01*
X132017835Y-106565526D01*
X132227410Y-106497432D01*
X132423760Y-106397386D01*
X132487513Y-106351066D01*
X132487514Y-106351066D01*
X131839816Y-105703369D01*
X131892640Y-105689215D01*
X132012353Y-105620099D01*
X132110099Y-105522353D01*
X132179215Y-105402640D01*
X132193369Y-105349816D01*
X132841066Y-105997514D01*
X132841066Y-105997513D01*
X132859372Y-105972319D01*
X132914701Y-105929653D01*
X132984315Y-105923674D01*
X133046110Y-105956279D01*
X133060008Y-105972319D01*
X133161752Y-106112358D01*
X133161756Y-106112363D01*
X133317636Y-106268243D01*
X133317641Y-106268247D01*
X133495976Y-106397814D01*
X133561794Y-106431350D01*
X133612591Y-106479324D01*
X133629500Y-106541835D01*
X133629500Y-128700166D01*
X133609815Y-128767205D01*
X133608602Y-128769057D01*
X133540609Y-128870814D01*
X133540602Y-128870827D01*
X133480264Y-129016498D01*
X133480261Y-129016510D01*
X133449500Y-129171153D01*
X133449500Y-129328846D01*
X133480261Y-129483489D01*
X133480264Y-129483501D01*
X133540602Y-129629172D01*
X133540609Y-129629185D01*
X133628210Y-129760288D01*
X133628213Y-129760292D01*
X133739707Y-129871786D01*
X133739711Y-129871789D01*
X133870814Y-129959390D01*
X133870827Y-129959397D01*
X134016498Y-130019735D01*
X134016503Y-130019737D01*
X134171153Y-130050499D01*
X134171156Y-130050500D01*
X134171158Y-130050500D01*
X134328844Y-130050500D01*
X134328845Y-130050499D01*
X134483497Y-130019737D01*
X134629179Y-129959394D01*
X134760289Y-129871789D01*
X134871789Y-129760289D01*
X134959394Y-129629179D01*
X134966789Y-129611327D01*
X135019735Y-129483501D01*
X135019737Y-129483497D01*
X135050500Y-129328842D01*
X135050500Y-129171158D01*
X135050500Y-129171155D01*
X135050499Y-129171153D01*
X135031239Y-129074327D01*
X135019737Y-129016503D01*
X135019735Y-129016498D01*
X134959397Y-128870827D01*
X134959390Y-128870814D01*
X134871789Y-128739711D01*
X134871786Y-128739707D01*
X134866819Y-128734740D01*
X134833334Y-128673417D01*
X134830500Y-128647059D01*
X134830500Y-106541835D01*
X134850185Y-106474796D01*
X134898206Y-106431350D01*
X134898547Y-106431175D01*
X134964022Y-106397815D01*
X135142365Y-106268242D01*
X135298242Y-106112365D01*
X135381686Y-105997514D01*
X135399682Y-105972745D01*
X135455011Y-105930079D01*
X135524625Y-105924100D01*
X135586420Y-105956705D01*
X135600318Y-105972745D01*
X135701752Y-106112358D01*
X135701756Y-106112363D01*
X135857636Y-106268243D01*
X135857641Y-106268247D01*
X136035976Y-106397814D01*
X136101794Y-106431350D01*
X136152591Y-106479324D01*
X136169500Y-106541835D01*
X136169500Y-129513902D01*
X136149815Y-129580941D01*
X136133181Y-129601583D01*
X130730457Y-135004306D01*
X130669134Y-135037791D01*
X130599442Y-135032807D01*
X130543509Y-134990935D01*
X130519092Y-134925471D01*
X130520302Y-134897235D01*
X130522500Y-134883361D01*
X130522500Y-134684639D01*
X130491413Y-134488364D01*
X130437998Y-134323967D01*
X130430006Y-134299370D01*
X130430005Y-134299367D01*
X130339786Y-134122305D01*
X130222981Y-133961536D01*
X130082464Y-133821019D01*
X130002938Y-133763240D01*
X129988147Y-133750608D01*
X129891947Y-133654408D01*
X129891946Y-133654407D01*
X129891943Y-133654405D01*
X129749957Y-133570435D01*
X129749954Y-133570434D01*
X129591552Y-133524413D01*
X129591546Y-133524412D01*
X129554541Y-133521500D01*
X129554534Y-133521500D01*
X127295466Y-133521500D01*
X127295458Y-133521500D01*
X127258453Y-133524412D01*
X127258447Y-133524413D01*
X127100045Y-133570434D01*
X127100042Y-133570435D01*
X126958056Y-133654405D01*
X126958047Y-133654412D01*
X126841412Y-133771047D01*
X126841405Y-133771056D01*
X126757435Y-133913042D01*
X126757434Y-133913045D01*
X126711413Y-134071447D01*
X126711412Y-134071453D01*
X126708500Y-134108458D01*
X126708500Y-135459541D01*
X126711412Y-135496546D01*
X126711413Y-135496552D01*
X126757434Y-135654954D01*
X126757435Y-135654957D01*
X126841405Y-135796943D01*
X126841412Y-135796952D01*
X126958047Y-135913587D01*
X126958050Y-135913589D01*
X126958053Y-135913592D01*
X127014996Y-135947268D01*
X127062679Y-135998338D01*
X127075182Y-136067079D01*
X127048536Y-136131669D01*
X127014996Y-136160732D01*
X126958053Y-136194408D01*
X126958047Y-136194412D01*
X126841412Y-136311047D01*
X126841405Y-136311056D01*
X126757435Y-136453042D01*
X126757434Y-136453045D01*
X126711413Y-136611447D01*
X126711412Y-136611453D01*
X126708500Y-136648458D01*
X126708500Y-137999541D01*
X126711412Y-138036546D01*
X126711413Y-138036552D01*
X126757434Y-138194954D01*
X126757435Y-138194957D01*
X126757436Y-138194959D01*
X126768469Y-138213615D01*
X126841405Y-138336943D01*
X126841412Y-138336952D01*
X126958047Y-138453587D01*
X126958050Y-138453589D01*
X126958053Y-138453592D01*
X127014996Y-138487268D01*
X127062679Y-138538338D01*
X127075182Y-138607079D01*
X127048536Y-138671669D01*
X127014996Y-138700732D01*
X126958053Y-138734408D01*
X126958047Y-138734412D01*
X126841412Y-138851047D01*
X126841405Y-138851056D01*
X126757435Y-138993042D01*
X126757434Y-138993045D01*
X126711413Y-139151447D01*
X126711412Y-139151453D01*
X126708500Y-139188458D01*
X126708500Y-140539541D01*
X126711412Y-140576546D01*
X126711413Y-140576552D01*
X126757434Y-140734954D01*
X126757435Y-140734957D01*
X126841405Y-140876943D01*
X126841412Y-140876952D01*
X126958047Y-140993587D01*
X126958050Y-140993589D01*
X126958053Y-140993592D01*
X127014996Y-141027268D01*
X127062679Y-141078338D01*
X127075182Y-141147079D01*
X127048536Y-141211669D01*
X127014996Y-141240732D01*
X126958053Y-141274408D01*
X126958047Y-141274412D01*
X126841412Y-141391047D01*
X126841405Y-141391056D01*
X126757435Y-141533042D01*
X126757434Y-141533045D01*
X126711413Y-141691447D01*
X126711412Y-141691453D01*
X126708500Y-141728458D01*
X126708500Y-142321533D01*
X126688815Y-142388572D01*
X126636011Y-142434327D01*
X126566853Y-142444271D01*
X126503297Y-142415246D01*
X126496819Y-142409214D01*
X122136819Y-138049214D01*
X122103334Y-137987891D01*
X122100500Y-137961533D01*
X122100500Y-132079765D01*
X122120185Y-132012726D01*
X122121398Y-132010874D01*
X122209390Y-131879185D01*
X122209390Y-131879184D01*
X122209394Y-131879179D01*
X122269737Y-131733497D01*
X122300500Y-131578842D01*
X122300500Y-131421158D01*
X122300500Y-131421155D01*
X122300499Y-131421153D01*
X122269738Y-131266510D01*
X122269737Y-131266503D01*
X122269735Y-131266498D01*
X122209397Y-131120827D01*
X122209390Y-131120814D01*
X122121789Y-130989711D01*
X122121786Y-130989707D01*
X122010292Y-130878213D01*
X122010288Y-130878210D01*
X121879185Y-130790609D01*
X121879172Y-130790602D01*
X121733501Y-130730264D01*
X121733489Y-130730261D01*
X121578845Y-130699500D01*
X121578842Y-130699500D01*
X121421158Y-130699500D01*
X121421155Y-130699500D01*
X121266510Y-130730261D01*
X121260676Y-130732031D01*
X121259873Y-130729385D01*
X121202056Y-130735396D01*
X121139687Y-130703902D01*
X121104245Y-130643689D01*
X121100500Y-130613444D01*
X121100500Y-128885258D01*
X122149498Y-128885258D01*
X122149498Y-129114741D01*
X122156926Y-129171158D01*
X122179450Y-129342238D01*
X122216485Y-129480457D01*
X122238840Y-129563887D01*
X122326648Y-129775876D01*
X122326655Y-129775890D01*
X122441390Y-129974617D01*
X122581079Y-130156661D01*
X122581087Y-130156670D01*
X122743328Y-130318911D01*
X122743336Y-130318918D01*
X122925380Y-130458607D01*
X122925383Y-130458608D01*
X122925386Y-130458611D01*
X123124110Y-130573344D01*
X123124115Y-130573346D01*
X123124121Y-130573349D01*
X123215478Y-130611190D01*
X123336111Y-130661158D01*
X123557760Y-130720548D01*
X123785264Y-130750500D01*
X123785271Y-130750500D01*
X124014725Y-130750500D01*
X124014732Y-130750500D01*
X124242236Y-130720548D01*
X124463885Y-130661158D01*
X124675886Y-130573344D01*
X124874610Y-130458611D01*
X125056659Y-130318919D01*
X125056663Y-130318914D01*
X125056668Y-130318911D01*
X125218909Y-130156670D01*
X125218912Y-130156665D01*
X125218917Y-130156661D01*
X125358609Y-129974612D01*
X125473342Y-129775888D01*
X125561156Y-129563887D01*
X125620546Y-129342238D01*
X125650498Y-129114734D01*
X125650498Y-128885266D01*
X125620546Y-128657762D01*
X125561156Y-128436113D01*
X125473342Y-128224112D01*
X125358609Y-128025388D01*
X125358606Y-128025385D01*
X125358605Y-128025382D01*
X125223851Y-127849769D01*
X125218917Y-127843339D01*
X125218916Y-127843338D01*
X125218909Y-127843330D01*
X125056668Y-127681089D01*
X125056659Y-127681081D01*
X124874615Y-127541392D01*
X124832666Y-127517173D01*
X124729618Y-127457678D01*
X124675888Y-127426657D01*
X124675874Y-127426650D01*
X124463885Y-127338842D01*
X124242236Y-127279452D01*
X124204213Y-127274446D01*
X124014739Y-127249500D01*
X124014732Y-127249500D01*
X123785264Y-127249500D01*
X123785256Y-127249500D01*
X123568713Y-127278009D01*
X123557760Y-127279452D01*
X123464074Y-127304554D01*
X123336110Y-127338842D01*
X123124121Y-127426650D01*
X123124107Y-127426657D01*
X122925380Y-127541392D01*
X122743336Y-127681081D01*
X122581079Y-127843338D01*
X122441390Y-128025382D01*
X122326655Y-128224109D01*
X122326648Y-128224123D01*
X122238840Y-128436112D01*
X122179451Y-128657759D01*
X122179449Y-128657770D01*
X122149498Y-128885258D01*
X121100500Y-128885258D01*
X121100500Y-128079765D01*
X121120185Y-128012726D01*
X121121398Y-128010874D01*
X121209390Y-127879185D01*
X121209390Y-127879184D01*
X121209394Y-127879179D01*
X121269737Y-127733497D01*
X121300500Y-127578842D01*
X121300500Y-127421158D01*
X121300500Y-127421155D01*
X121300499Y-127421153D01*
X121293512Y-127386027D01*
X121269737Y-127266503D01*
X121223384Y-127154595D01*
X121209397Y-127120827D01*
X121209390Y-127120814D01*
X121121789Y-126989711D01*
X121121786Y-126989707D01*
X121010292Y-126878213D01*
X121010288Y-126878210D01*
X120879185Y-126790609D01*
X120879172Y-126790602D01*
X120733501Y-126730264D01*
X120733489Y-126730261D01*
X120578845Y-126699500D01*
X120578842Y-126699500D01*
X120421158Y-126699500D01*
X120421155Y-126699500D01*
X120266510Y-126730261D01*
X120266498Y-126730264D01*
X120120827Y-126790602D01*
X120120814Y-126790609D01*
X119989711Y-126878210D01*
X119989707Y-126878213D01*
X119878213Y-126989707D01*
X119878210Y-126989711D01*
X119790609Y-127120814D01*
X119790602Y-127120827D01*
X119730264Y-127266498D01*
X119730261Y-127266510D01*
X119699500Y-127421153D01*
X119699500Y-127578846D01*
X119730261Y-127733489D01*
X119730264Y-127733501D01*
X119790602Y-127879172D01*
X119790609Y-127879185D01*
X119878602Y-128010874D01*
X119899480Y-128077551D01*
X119899500Y-128079765D01*
X119899500Y-144413330D01*
X119899499Y-144413348D01*
X119899499Y-144579054D01*
X119899498Y-144579054D01*
X119940423Y-144731785D01*
X119969358Y-144781900D01*
X119969359Y-144781904D01*
X119969360Y-144781904D01*
X120005579Y-144844639D01*
X120019479Y-144868714D01*
X120019481Y-144868717D01*
X120138349Y-144987585D01*
X120138354Y-144987589D01*
X125655284Y-150504520D01*
X125655286Y-150504521D01*
X125655290Y-150504524D01*
X125734079Y-150550012D01*
X125792216Y-150583577D01*
X125944943Y-150624501D01*
X125944945Y-150624501D01*
X126110654Y-150624501D01*
X126110670Y-150624500D01*
X126587970Y-150624500D01*
X126655009Y-150644185D01*
X126700764Y-150696989D01*
X126709435Y-150730465D01*
X126710274Y-150730312D01*
X126711413Y-150736552D01*
X126757434Y-150894954D01*
X126757435Y-150894957D01*
X126841405Y-151036943D01*
X126841412Y-151036952D01*
X126958047Y-151153587D01*
X126958051Y-151153590D01*
X126958053Y-151153592D01*
X127100041Y-151237564D01*
X127141816Y-151249701D01*
X127258447Y-151283586D01*
X127258450Y-151283586D01*
X127258452Y-151283587D01*
X127295466Y-151286500D01*
X127295474Y-151286500D01*
X129554526Y-151286500D01*
X129554534Y-151286500D01*
X129591548Y-151283587D01*
X129591550Y-151283586D01*
X129591552Y-151283586D01*
X129633323Y-151271449D01*
X129749959Y-151237564D01*
X129891947Y-151153592D01*
X129988148Y-151057389D01*
X130002939Y-151044758D01*
X130082464Y-150986981D01*
X130222981Y-150846464D01*
X130339787Y-150685694D01*
X130430005Y-150508632D01*
X130491413Y-150319636D01*
X130522500Y-150123361D01*
X130522500Y-149924639D01*
X130491413Y-149728364D01*
X130450547Y-149602591D01*
X130430006Y-149539370D01*
X130430005Y-149539367D01*
X130360937Y-149403815D01*
X130339787Y-149362306D01*
X130222981Y-149201536D01*
X130082464Y-149061019D01*
X130023820Y-149018412D01*
X130002938Y-149003240D01*
X129996175Y-148997960D01*
X129992000Y-148994461D01*
X129891947Y-148894408D01*
X129826259Y-148855560D01*
X129818477Y-148849038D01*
X129804510Y-148828073D01*
X129787321Y-148809663D01*
X129785471Y-148799492D01*
X129779740Y-148790890D01*
X129779324Y-148765702D01*
X129774817Y-148740921D01*
X129778758Y-148731366D01*
X129778588Y-148721030D01*
X129791856Y-148699616D01*
X129801462Y-148676332D01*
X129811874Y-148667309D01*
X129815389Y-148661638D01*
X129822127Y-148658425D01*
X129835004Y-148647268D01*
X129835498Y-148646976D01*
X129891947Y-148613592D01*
X129988148Y-148517389D01*
X130002939Y-148504758D01*
X130082464Y-148446981D01*
X130222981Y-148306464D01*
X130339787Y-148145694D01*
X130430005Y-147968632D01*
X130491413Y-147779636D01*
X130522500Y-147583361D01*
X130522500Y-147384639D01*
X130491413Y-147188364D01*
X130439007Y-147027074D01*
X130430006Y-146999370D01*
X130430005Y-146999367D01*
X130384035Y-146909149D01*
X130339787Y-146822306D01*
X130222981Y-146661536D01*
X130082464Y-146521019D01*
X130023820Y-146478412D01*
X130002938Y-146463240D01*
X129996175Y-146457960D01*
X129992000Y-146454461D01*
X129891947Y-146354408D01*
X129826259Y-146315560D01*
X129818477Y-146309038D01*
X129804510Y-146288073D01*
X129787321Y-146269663D01*
X129785471Y-146259492D01*
X129779740Y-146250890D01*
X129779324Y-146225702D01*
X129774817Y-146200921D01*
X129778758Y-146191366D01*
X129778588Y-146181030D01*
X129791856Y-146159616D01*
X129801462Y-146136332D01*
X129811874Y-146127309D01*
X129815389Y-146121638D01*
X129822127Y-146118425D01*
X129835004Y-146107268D01*
X129891947Y-146073592D01*
X129988148Y-145977389D01*
X130002939Y-145964758D01*
X130082464Y-145906981D01*
X130135732Y-145853713D01*
X134259500Y-145853713D01*
X134259500Y-146066287D01*
X134260658Y-146073596D01*
X134291757Y-146269953D01*
X134292754Y-146276243D01*
X134356153Y-146471365D01*
X134358444Y-146478414D01*
X134454951Y-146667820D01*
X134579890Y-146839786D01*
X134730213Y-146990109D01*
X134902182Y-147115050D01*
X134910946Y-147119516D01*
X134961742Y-147167491D01*
X134978536Y-147235312D01*
X134955998Y-147301447D01*
X134910946Y-147340484D01*
X134902182Y-147344949D01*
X134730213Y-147469890D01*
X134579890Y-147620213D01*
X134454951Y-147792179D01*
X134358444Y-147981585D01*
X134292753Y-148183760D01*
X134265671Y-148354753D01*
X134259500Y-148393713D01*
X134259500Y-148606287D01*
X134262413Y-148624678D01*
X134291711Y-148809663D01*
X134292754Y-148816243D01*
X134353589Y-149003474D01*
X134358444Y-149018414D01*
X134454951Y-149207820D01*
X134579890Y-149379786D01*
X134730213Y-149530109D01*
X134902182Y-149655050D01*
X134910946Y-149659516D01*
X134961742Y-149707491D01*
X134978536Y-149775312D01*
X134955998Y-149841447D01*
X134910946Y-149880484D01*
X134902182Y-149884949D01*
X134730213Y-150009890D01*
X134579890Y-150160213D01*
X134454951Y-150332179D01*
X134358444Y-150521585D01*
X134292753Y-150723760D01*
X134265639Y-150894954D01*
X134259500Y-150933713D01*
X134259500Y-151146287D01*
X134269534Y-151209644D01*
X134281707Y-151286499D01*
X134292754Y-151356243D01*
X134340048Y-151501799D01*
X134358444Y-151558414D01*
X134454951Y-151747820D01*
X134579890Y-151919786D01*
X134730213Y-152070109D01*
X134902179Y-152195048D01*
X134902181Y-152195049D01*
X134902184Y-152195051D01*
X135091588Y-152291557D01*
X135293757Y-152357246D01*
X135503713Y-152390500D01*
X135503714Y-152390500D01*
X135716286Y-152390500D01*
X135716287Y-152390500D01*
X135926243Y-152357246D01*
X136128412Y-152291557D01*
X136317816Y-152195051D01*
X136339789Y-152179086D01*
X136489786Y-152070109D01*
X136489788Y-152070106D01*
X136489792Y-152070104D01*
X136640104Y-151919792D01*
X136640106Y-151919788D01*
X136640109Y-151919786D01*
X136765048Y-151747820D01*
X136765047Y-151747820D01*
X136765051Y-151747816D01*
X136769514Y-151739054D01*
X136817488Y-151688259D01*
X136885308Y-151671463D01*
X136951444Y-151693999D01*
X136990486Y-151739056D01*
X136994951Y-151747820D01*
X137119890Y-151919786D01*
X137270213Y-152070109D01*
X137442179Y-152195048D01*
X137442181Y-152195049D01*
X137442184Y-152195051D01*
X137631588Y-152291557D01*
X137833757Y-152357246D01*
X138043713Y-152390500D01*
X138043714Y-152390500D01*
X138256286Y-152390500D01*
X138256287Y-152390500D01*
X138466243Y-152357246D01*
X138668412Y-152291557D01*
X138857816Y-152195051D01*
X138879789Y-152179086D01*
X139029786Y-152070109D01*
X139029788Y-152070106D01*
X139029792Y-152070104D01*
X139180104Y-151919792D01*
X139180106Y-151919788D01*
X139180109Y-151919786D01*
X139305048Y-151747820D01*
X139305047Y-151747820D01*
X139305051Y-151747816D01*
X139401557Y-151558412D01*
X139467246Y-151356243D01*
X139500500Y-151146287D01*
X139500500Y-150933713D01*
X139467246Y-150723757D01*
X139401557Y-150521588D01*
X139305051Y-150332184D01*
X139305049Y-150332181D01*
X139305048Y-150332179D01*
X139180109Y-150160213D01*
X139029786Y-150009890D01*
X138857820Y-149884951D01*
X138857115Y-149884591D01*
X138849054Y-149880485D01*
X138798259Y-149832512D01*
X138781463Y-149764692D01*
X138803999Y-149698556D01*
X138849054Y-149659515D01*
X138857816Y-149655051D01*
X138930882Y-149601966D01*
X139029786Y-149530109D01*
X139029788Y-149530106D01*
X139029792Y-149530104D01*
X139180104Y-149379792D01*
X139180106Y-149379788D01*
X139180109Y-149379786D01*
X139305048Y-149207820D01*
X139305047Y-149207820D01*
X139305051Y-149207816D01*
X139401557Y-149018412D01*
X139467246Y-148816243D01*
X139500500Y-148606287D01*
X139500500Y-148393713D01*
X139467246Y-148183757D01*
X139401557Y-147981588D01*
X139305051Y-147792184D01*
X139305049Y-147792181D01*
X139305048Y-147792179D01*
X139180109Y-147620213D01*
X139029786Y-147469890D01*
X138857820Y-147344951D01*
X138857115Y-147344591D01*
X138849054Y-147340485D01*
X138798259Y-147292512D01*
X138781463Y-147224692D01*
X138803999Y-147158556D01*
X138849054Y-147119515D01*
X138857816Y-147115051D01*
X138934773Y-147059139D01*
X139029786Y-146990109D01*
X139029788Y-146990106D01*
X139029792Y-146990104D01*
X139180104Y-146839792D01*
X139180106Y-146839788D01*
X139180109Y-146839786D01*
X139305048Y-146667820D01*
X139305047Y-146667820D01*
X139305051Y-146667816D01*
X139401557Y-146478412D01*
X139467246Y-146276243D01*
X139500500Y-146066287D01*
X139500500Y-145853713D01*
X139467246Y-145643757D01*
X139401557Y-145441588D01*
X139305051Y-145252184D01*
X139305049Y-145252181D01*
X139305048Y-145252179D01*
X139180109Y-145080213D01*
X139029786Y-144929890D01*
X138857820Y-144804951D01*
X138668414Y-144708444D01*
X138668413Y-144708443D01*
X138668412Y-144708443D01*
X138466243Y-144642754D01*
X138466241Y-144642753D01*
X138466240Y-144642753D01*
X138304957Y-144617208D01*
X138256287Y-144609500D01*
X138043713Y-144609500D01*
X137995042Y-144617208D01*
X137833760Y-144642753D01*
X137631585Y-144708444D01*
X137442179Y-144804951D01*
X137270213Y-144929890D01*
X137119890Y-145080213D01*
X136994949Y-145252182D01*
X136990484Y-145260946D01*
X136942509Y-145311742D01*
X136874688Y-145328536D01*
X136808553Y-145305998D01*
X136769516Y-145260946D01*
X136765050Y-145252182D01*
X136640109Y-145080213D01*
X136489786Y-144929890D01*
X136317820Y-144804951D01*
X136128414Y-144708444D01*
X136128413Y-144708443D01*
X136128412Y-144708443D01*
X135926243Y-144642754D01*
X135926241Y-144642753D01*
X135926240Y-144642753D01*
X135764957Y-144617208D01*
X135716287Y-144609500D01*
X135503713Y-144609500D01*
X135455042Y-144617208D01*
X135293760Y-144642753D01*
X135091585Y-144708444D01*
X134902179Y-144804951D01*
X134730213Y-144929890D01*
X134579890Y-145080213D01*
X134454951Y-145252179D01*
X134358444Y-145441585D01*
X134292753Y-145643760D01*
X134271492Y-145778000D01*
X134259500Y-145853713D01*
X130135732Y-145853713D01*
X130222981Y-145766464D01*
X130339787Y-145605694D01*
X130430005Y-145428632D01*
X130491413Y-145239636D01*
X130491415Y-145239621D01*
X130491424Y-145239586D01*
X130491436Y-145239563D01*
X130492919Y-145235002D01*
X130493876Y-145235313D01*
X130526203Y-145178987D01*
X130588223Y-145146811D01*
X130657793Y-145153273D01*
X130712825Y-145196322D01*
X130729045Y-145227554D01*
X130757329Y-145308384D01*
X130850246Y-145456262D01*
X130973737Y-145579753D01*
X131110659Y-145665786D01*
X131148222Y-145628224D01*
X131997352Y-144779094D01*
X132020792Y-144866571D01*
X132079311Y-144967930D01*
X132162070Y-145050689D01*
X132263429Y-145109208D01*
X132350905Y-145132647D01*
X131738552Y-145744999D01*
X131738553Y-145745000D01*
X133131447Y-145745000D01*
X133131447Y-145744999D01*
X132519094Y-145132647D01*
X132606571Y-145109208D01*
X132707930Y-145050689D01*
X132790689Y-144967930D01*
X132849208Y-144866571D01*
X132872647Y-144779094D01*
X133759340Y-145665787D01*
X133896259Y-145579756D01*
X134019753Y-145456262D01*
X134112669Y-145308386D01*
X134170351Y-145143539D01*
X134184999Y-145013530D01*
X134185000Y-145013526D01*
X134185000Y-144376473D01*
X134184999Y-144376469D01*
X134170351Y-144246460D01*
X134112669Y-144081613D01*
X134019753Y-143933737D01*
X133916550Y-143830534D01*
X133883065Y-143769211D01*
X133888049Y-143699519D01*
X133916546Y-143655176D01*
X134020147Y-143551576D01*
X134084896Y-143448528D01*
X134137231Y-143402237D01*
X134189890Y-143390500D01*
X134623331Y-143390500D01*
X134623347Y-143390501D01*
X134630943Y-143390501D01*
X134789054Y-143390501D01*
X134789057Y-143390501D01*
X134941785Y-143349577D01*
X135013772Y-143308015D01*
X135078716Y-143270520D01*
X135190520Y-143158716D01*
X135190520Y-143158714D01*
X135200724Y-143148511D01*
X135200727Y-143148506D01*
X143125753Y-135223481D01*
X143187074Y-135189998D01*
X143256766Y-135194982D01*
X143312699Y-135236854D01*
X143327087Y-135264560D01*
X143328129Y-135264129D01*
X143329991Y-135268626D01*
X143404715Y-135415277D01*
X143420213Y-135445694D01*
X143537019Y-135606464D01*
X143537021Y-135606466D01*
X143677539Y-135746984D01*
X143757060Y-135804758D01*
X143763824Y-135810039D01*
X143767998Y-135813537D01*
X143868053Y-135913592D01*
X143933737Y-135952437D01*
X143941522Y-135958962D01*
X143955488Y-135979926D01*
X143972679Y-135998338D01*
X143974528Y-136008506D01*
X143980260Y-136017110D01*
X143980674Y-136042297D01*
X143985182Y-136067079D01*
X143981239Y-136076634D01*
X143981410Y-136086970D01*
X143968143Y-136108381D01*
X143958536Y-136131669D01*
X143948122Y-136140692D01*
X143944609Y-136146363D01*
X143937871Y-136149575D01*
X143924996Y-136160732D01*
X143868053Y-136194408D01*
X143868046Y-136194413D01*
X143771854Y-136290604D01*
X143757061Y-136303239D01*
X143677536Y-136361018D01*
X143537021Y-136501533D01*
X143420213Y-136662305D01*
X143329994Y-136839367D01*
X143329993Y-136839370D01*
X143268587Y-137028362D01*
X143237500Y-137224639D01*
X143237500Y-137423360D01*
X143268587Y-137619637D01*
X143329993Y-137808629D01*
X143329994Y-137808632D01*
X143364617Y-137876582D01*
X143420213Y-137985694D01*
X143537019Y-138146464D01*
X143537021Y-138146466D01*
X143677539Y-138286984D01*
X143757060Y-138344758D01*
X143763824Y-138350039D01*
X143767998Y-138353537D01*
X143868053Y-138453592D01*
X143933737Y-138492437D01*
X143941522Y-138498962D01*
X143955488Y-138519926D01*
X143972679Y-138538338D01*
X143974528Y-138548506D01*
X143980260Y-138557110D01*
X143980674Y-138582297D01*
X143985182Y-138607079D01*
X143981239Y-138616634D01*
X143981410Y-138626970D01*
X143968143Y-138648381D01*
X143958536Y-138671669D01*
X143948122Y-138680692D01*
X143944609Y-138686363D01*
X143937871Y-138689575D01*
X143924996Y-138700732D01*
X143868053Y-138734408D01*
X143868046Y-138734413D01*
X143771854Y-138830604D01*
X143757061Y-138843239D01*
X143677536Y-138901018D01*
X143537021Y-139041533D01*
X143420213Y-139202305D01*
X143329994Y-139379367D01*
X143329993Y-139379370D01*
X143268587Y-139568362D01*
X143250939Y-139679788D01*
X143237500Y-139764639D01*
X143237500Y-139963361D01*
X143253043Y-140061498D01*
X143268587Y-140159637D01*
X143329993Y-140348629D01*
X143329994Y-140348632D01*
X143415244Y-140515941D01*
X143420213Y-140525694D01*
X143537019Y-140686464D01*
X143537021Y-140686466D01*
X143677539Y-140826984D01*
X143757060Y-140884758D01*
X143763824Y-140890039D01*
X143767998Y-140893537D01*
X143868053Y-140993592D01*
X143933737Y-141032437D01*
X143941522Y-141038962D01*
X143955488Y-141059926D01*
X143972679Y-141078338D01*
X143974528Y-141088506D01*
X143980260Y-141097110D01*
X143980674Y-141122297D01*
X143985182Y-141147079D01*
X143981239Y-141156634D01*
X143981410Y-141166970D01*
X143968143Y-141188381D01*
X143958536Y-141211669D01*
X143948122Y-141220692D01*
X143944609Y-141226363D01*
X143937871Y-141229575D01*
X143924996Y-141240732D01*
X143868053Y-141274408D01*
X143868046Y-141274413D01*
X143771854Y-141370604D01*
X143757061Y-141383239D01*
X143677536Y-141441018D01*
X143537021Y-141581533D01*
X143420213Y-141742305D01*
X143329994Y-141919367D01*
X143329993Y-141919370D01*
X143268587Y-142108362D01*
X143237500Y-142304639D01*
X143237500Y-142503360D01*
X143268587Y-142699637D01*
X143329993Y-142888629D01*
X143329994Y-142888632D01*
X143420213Y-143065694D01*
X143537019Y-143226464D01*
X143537021Y-143226466D01*
X143677539Y-143366984D01*
X143757060Y-143424758D01*
X143763824Y-143430039D01*
X143767998Y-143433537D01*
X143868053Y-143533592D01*
X143933737Y-143572437D01*
X143941522Y-143578962D01*
X143955488Y-143599926D01*
X143972679Y-143618338D01*
X143974528Y-143628506D01*
X143980260Y-143637110D01*
X143980674Y-143662297D01*
X143985182Y-143687079D01*
X143981239Y-143696634D01*
X143981410Y-143706970D01*
X143968143Y-143728381D01*
X143958536Y-143751669D01*
X143948122Y-143760692D01*
X143944609Y-143766363D01*
X143937871Y-143769575D01*
X143924996Y-143780732D01*
X143868053Y-143814408D01*
X143868046Y-143814413D01*
X143771854Y-143910604D01*
X143757061Y-143923239D01*
X143677536Y-143981018D01*
X143537021Y-144121533D01*
X143420213Y-144282305D01*
X143329994Y-144459367D01*
X143329993Y-144459370D01*
X143268587Y-144648362D01*
X143237500Y-144844639D01*
X143237500Y-145043360D01*
X143268587Y-145239637D01*
X143329993Y-145428629D01*
X143329994Y-145428632D01*
X143401896Y-145569746D01*
X143420213Y-145605694D01*
X143537019Y-145766464D01*
X143537021Y-145766466D01*
X143677539Y-145906984D01*
X143757060Y-145964758D01*
X143763786Y-145970007D01*
X143767979Y-145973518D01*
X143868053Y-146073592D01*
X143934208Y-146112716D01*
X143941975Y-146119220D01*
X143955962Y-146140197D01*
X143973170Y-146158627D01*
X143975015Y-146168773D01*
X143980736Y-146177353D01*
X143981161Y-146202564D01*
X143985673Y-146227369D01*
X143981740Y-146236900D01*
X143981915Y-146247212D01*
X143968643Y-146268649D01*
X143959028Y-146291958D01*
X143948643Y-146300956D01*
X143945137Y-146306620D01*
X143938391Y-146309838D01*
X143925487Y-146321021D01*
X143868370Y-146354800D01*
X143868357Y-146354810D01*
X143796360Y-146426806D01*
X143796360Y-146426807D01*
X144415905Y-147046352D01*
X144328429Y-147069792D01*
X144227070Y-147128311D01*
X144144311Y-147211070D01*
X144085792Y-147312429D01*
X144062352Y-147399905D01*
X143447730Y-146785282D01*
X143447729Y-146785283D01*
X143420643Y-146822564D01*
X143330457Y-146999562D01*
X143269075Y-147188476D01*
X143269075Y-147188479D01*
X143238000Y-147384678D01*
X143238000Y-147583321D01*
X143269075Y-147779520D01*
X143269075Y-147779523D01*
X143330457Y-147968437D01*
X143420641Y-148145432D01*
X143447730Y-148182715D01*
X143447731Y-148182716D01*
X144062352Y-147568094D01*
X144085792Y-147655571D01*
X144144311Y-147756930D01*
X144227070Y-147839689D01*
X144328429Y-147898208D01*
X144415904Y-147921647D01*
X143796360Y-148541191D01*
X143868360Y-148613192D01*
X143868364Y-148613195D01*
X143925486Y-148646977D01*
X143973169Y-148698046D01*
X143985673Y-148766788D01*
X143959028Y-148831377D01*
X143941975Y-148848779D01*
X143934204Y-148855285D01*
X143868053Y-148894408D01*
X143767990Y-148994469D01*
X143763784Y-148997992D01*
X143762598Y-148998509D01*
X143757061Y-149003239D01*
X143677536Y-149061018D01*
X143537021Y-149201533D01*
X143420213Y-149362305D01*
X143329994Y-149539367D01*
X143329993Y-149539370D01*
X143268587Y-149728362D01*
X143237500Y-149924639D01*
X143237500Y-150123360D01*
X143268587Y-150319637D01*
X143329993Y-150508629D01*
X143329994Y-150508632D01*
X143389033Y-150624500D01*
X143420213Y-150685694D01*
X143537019Y-150846464D01*
X143537021Y-150846466D01*
X143677539Y-150986984D01*
X143757060Y-151044758D01*
X143771851Y-151057390D01*
X143868053Y-151153592D01*
X144010041Y-151237564D01*
X144051816Y-151249701D01*
X144168447Y-151283586D01*
X144168450Y-151283586D01*
X144168452Y-151283587D01*
X144205466Y-151286500D01*
X144205474Y-151286500D01*
X146464526Y-151286500D01*
X146464534Y-151286500D01*
X146501548Y-151283587D01*
X146501550Y-151283586D01*
X146501552Y-151283586D01*
X146543323Y-151271449D01*
X146659959Y-151237564D01*
X146801947Y-151153592D01*
X146918592Y-151036947D01*
X147002564Y-150894959D01*
X147048587Y-150736548D01*
X147051500Y-150699534D01*
X147051500Y-149348466D01*
X147048587Y-149311452D01*
X147002564Y-149153041D01*
X146918592Y-149011053D01*
X146918590Y-149011051D01*
X146918587Y-149011047D01*
X146801952Y-148894412D01*
X146801949Y-148894410D01*
X146801947Y-148894408D01*
X146744511Y-148860440D01*
X146696829Y-148809371D01*
X146684326Y-148740630D01*
X146710972Y-148676040D01*
X146744514Y-148646976D01*
X146801637Y-148613193D01*
X146801643Y-148613189D01*
X146918189Y-148496643D01*
X146918196Y-148496634D01*
X147002102Y-148354756D01*
X147002103Y-148354753D01*
X147048088Y-148196473D01*
X147048089Y-148196467D01*
X147050999Y-148159488D01*
X147050999Y-146808530D01*
X147050998Y-146808508D01*
X147048089Y-146771533D01*
X147002102Y-146613242D01*
X146918196Y-146471365D01*
X146918189Y-146471356D01*
X146801643Y-146354810D01*
X146801634Y-146354803D01*
X146744513Y-146321022D01*
X146696829Y-146269953D01*
X146684326Y-146201211D01*
X146710972Y-146136622D01*
X146744514Y-146107558D01*
X146801941Y-146073596D01*
X146801942Y-146073594D01*
X146801947Y-146073592D01*
X146918592Y-145956947D01*
X147002564Y-145814959D01*
X147048587Y-145656548D01*
X147051500Y-145619534D01*
X147051500Y-144268466D01*
X147048587Y-144231452D01*
X147048089Y-144229739D01*
X147002565Y-144073045D01*
X147002564Y-144073042D01*
X147002564Y-144073041D01*
X146920181Y-143933739D01*
X146918594Y-143931056D01*
X146918587Y-143931047D01*
X146801952Y-143814412D01*
X146801944Y-143814406D01*
X146745004Y-143780732D01*
X146697321Y-143729663D01*
X146684817Y-143660921D01*
X146711462Y-143596332D01*
X146745004Y-143567268D01*
X146801947Y-143533592D01*
X146918592Y-143416947D01*
X147002564Y-143274959D01*
X147048587Y-143116548D01*
X147051500Y-143079534D01*
X147051500Y-141728466D01*
X147048587Y-141691452D01*
X147002564Y-141533041D01*
X146918592Y-141391053D01*
X146918590Y-141391051D01*
X146918587Y-141391047D01*
X146801952Y-141274412D01*
X146801944Y-141274406D01*
X146745004Y-141240732D01*
X146697321Y-141189663D01*
X146684817Y-141120921D01*
X146711462Y-141056332D01*
X146745004Y-141027268D01*
X146801947Y-140993592D01*
X146918592Y-140876947D01*
X147002564Y-140734959D01*
X147048587Y-140576548D01*
X147051500Y-140539534D01*
X147051500Y-140378711D01*
X163649500Y-140378711D01*
X163649500Y-140621288D01*
X163681161Y-140861785D01*
X163743947Y-141096104D01*
X163817803Y-141274408D01*
X163836776Y-141320212D01*
X163958064Y-141530289D01*
X163958066Y-141530292D01*
X163958067Y-141530293D01*
X164105733Y-141722736D01*
X164105739Y-141722743D01*
X164277256Y-141894260D01*
X164277263Y-141894266D01*
X164390321Y-141981018D01*
X164469711Y-142041936D01*
X164679788Y-142163224D01*
X164903900Y-142256054D01*
X165138211Y-142318838D01*
X165318586Y-142342584D01*
X165378711Y-142350500D01*
X165378712Y-142350500D01*
X165621289Y-142350500D01*
X165669388Y-142344167D01*
X165861789Y-142318838D01*
X166096100Y-142256054D01*
X166320212Y-142163224D01*
X166530289Y-142041936D01*
X166722738Y-141894265D01*
X166894265Y-141722738D01*
X167041936Y-141530289D01*
X167163224Y-141320212D01*
X167256054Y-141096100D01*
X167318838Y-140861789D01*
X167350500Y-140621288D01*
X167350500Y-140378712D01*
X167318838Y-140138211D01*
X167256054Y-139903900D01*
X167163224Y-139679788D01*
X167041936Y-139469711D01*
X166936281Y-139332018D01*
X166894266Y-139277263D01*
X166894260Y-139277256D01*
X166722743Y-139105739D01*
X166722736Y-139105733D01*
X166530293Y-138958067D01*
X166530292Y-138958066D01*
X166530289Y-138958064D01*
X166344946Y-138851056D01*
X166320214Y-138836777D01*
X166320205Y-138836773D01*
X166096104Y-138743947D01*
X165974511Y-138711366D01*
X165861789Y-138681162D01*
X165861788Y-138681161D01*
X165861785Y-138681161D01*
X165621289Y-138649500D01*
X165621288Y-138649500D01*
X165378712Y-138649500D01*
X165378711Y-138649500D01*
X165138214Y-138681161D01*
X164903895Y-138743947D01*
X164679794Y-138836773D01*
X164679785Y-138836777D01*
X164530364Y-138923046D01*
X164477343Y-138953658D01*
X164469706Y-138958067D01*
X164277263Y-139105733D01*
X164277256Y-139105739D01*
X164105739Y-139277256D01*
X164105733Y-139277263D01*
X163958067Y-139469706D01*
X163836777Y-139679785D01*
X163836773Y-139679794D01*
X163743947Y-139903895D01*
X163681161Y-140138214D01*
X163649500Y-140378711D01*
X147051500Y-140378711D01*
X147051500Y-139188466D01*
X147048587Y-139151452D01*
X147035304Y-139105733D01*
X147002565Y-138993045D01*
X147002564Y-138993042D01*
X147002564Y-138993041D01*
X146918592Y-138851053D01*
X146918590Y-138851051D01*
X146918587Y-138851047D01*
X146801952Y-138734412D01*
X146801944Y-138734406D01*
X146745004Y-138700732D01*
X146697321Y-138649663D01*
X146684817Y-138580921D01*
X146711462Y-138516332D01*
X146745004Y-138487268D01*
X146801947Y-138453592D01*
X146918592Y-138336947D01*
X147002564Y-138194959D01*
X147048587Y-138036548D01*
X147051500Y-137999534D01*
X147051500Y-136648466D01*
X147048587Y-136611452D01*
X147002564Y-136453041D01*
X146918592Y-136311053D01*
X146918590Y-136311051D01*
X146918587Y-136311047D01*
X146801952Y-136194412D01*
X146801944Y-136194406D01*
X146745004Y-136160732D01*
X146697321Y-136109663D01*
X146684817Y-136040921D01*
X146711462Y-135976332D01*
X146745004Y-135947268D01*
X146801947Y-135913592D01*
X146918592Y-135796947D01*
X147002564Y-135654959D01*
X147048587Y-135496548D01*
X147051500Y-135459534D01*
X147051500Y-134108466D01*
X147048587Y-134071452D01*
X147002564Y-133913041D01*
X146918592Y-133771053D01*
X146918590Y-133771051D01*
X146918587Y-133771047D01*
X146801952Y-133654412D01*
X146801943Y-133654405D01*
X146659957Y-133570435D01*
X146659954Y-133570434D01*
X146501552Y-133524413D01*
X146501546Y-133524412D01*
X146464541Y-133521500D01*
X146464534Y-133521500D01*
X145127098Y-133521500D01*
X145105852Y-133515261D01*
X145083764Y-133513682D01*
X145072980Y-133505609D01*
X145060059Y-133501815D01*
X145045559Y-133485081D01*
X145027831Y-133471810D01*
X145023123Y-133459189D01*
X145014304Y-133449011D01*
X145011152Y-133427093D01*
X145003414Y-133406346D01*
X145006276Y-133393185D01*
X145004360Y-133379853D01*
X145013559Y-133359709D01*
X145018266Y-133338073D01*
X145031534Y-133320347D01*
X145033385Y-133316297D01*
X145039417Y-133309819D01*
X145212417Y-133136819D01*
X145273740Y-133103334D01*
X145300098Y-133100500D01*
X156420234Y-133100500D01*
X156487273Y-133120185D01*
X156489125Y-133121398D01*
X156620814Y-133209390D01*
X156620827Y-133209397D01*
X156766498Y-133269735D01*
X156766503Y-133269737D01*
X156921153Y-133300499D01*
X156921156Y-133300500D01*
X156921158Y-133300500D01*
X157078844Y-133300500D01*
X157078845Y-133300499D01*
X157233497Y-133269737D01*
X157379179Y-133209394D01*
X157510289Y-133121789D01*
X157621789Y-133010289D01*
X157709394Y-132879179D01*
X157769737Y-132733497D01*
X157800500Y-132578842D01*
X157800500Y-132421158D01*
X157800500Y-132421155D01*
X157800499Y-132421153D01*
X157769738Y-132266510D01*
X157769737Y-132266503D01*
X157769735Y-132266498D01*
X157709397Y-132120827D01*
X157709390Y-132120814D01*
X157621789Y-131989711D01*
X157621786Y-131989707D01*
X157510292Y-131878213D01*
X157510288Y-131878210D01*
X157379185Y-131790609D01*
X157379172Y-131790602D01*
X157233501Y-131730264D01*
X157233489Y-131730261D01*
X157078845Y-131699500D01*
X157078842Y-131699500D01*
X156921158Y-131699500D01*
X156921155Y-131699500D01*
X156766510Y-131730261D01*
X156766498Y-131730264D01*
X156620827Y-131790602D01*
X156620814Y-131790609D01*
X156489125Y-131878602D01*
X156422447Y-131899480D01*
X156420234Y-131899500D01*
X145086670Y-131899500D01*
X145086654Y-131899499D01*
X145079058Y-131899499D01*
X144920943Y-131899499D01*
X144844579Y-131919961D01*
X144768214Y-131940423D01*
X144768209Y-131940426D01*
X144631290Y-132019475D01*
X144631282Y-132019481D01*
X134497584Y-142153181D01*
X134470656Y-142167884D01*
X134444838Y-142184477D01*
X134438637Y-142185368D01*
X134436261Y-142186666D01*
X134409903Y-142189500D01*
X134189890Y-142189500D01*
X134122851Y-142169815D01*
X134084896Y-142131472D01*
X134028637Y-142041936D01*
X134020147Y-142028424D01*
X133896576Y-141904853D01*
X133748606Y-141811878D01*
X133748605Y-141811877D01*
X133748604Y-141811877D01*
X133583658Y-141754159D01*
X133583648Y-141754157D01*
X133453558Y-141739500D01*
X133453552Y-141739500D01*
X131416448Y-141739500D01*
X131416441Y-141739500D01*
X131286351Y-141754157D01*
X131286341Y-141754159D01*
X131121395Y-141811877D01*
X130973423Y-141904853D01*
X130849853Y-142028423D01*
X130756878Y-142176394D01*
X130744080Y-142212968D01*
X130703358Y-142269744D01*
X130638405Y-142295490D01*
X130569843Y-142282033D01*
X130519441Y-142233645D01*
X130504566Y-142191409D01*
X130491413Y-142108363D01*
X130430006Y-141919370D01*
X130430005Y-141919367D01*
X130339786Y-141742305D01*
X130337748Y-141739500D01*
X130222981Y-141581536D01*
X130082464Y-141441019D01*
X130002937Y-141383239D01*
X129996175Y-141377960D01*
X129992000Y-141374461D01*
X129891947Y-141274408D01*
X129826259Y-141235560D01*
X129818477Y-141229038D01*
X129804510Y-141208073D01*
X129787321Y-141189663D01*
X129785471Y-141179492D01*
X129779740Y-141170890D01*
X129779324Y-141145702D01*
X129774817Y-141120921D01*
X129778758Y-141111366D01*
X129778588Y-141101030D01*
X129791856Y-141079616D01*
X129801462Y-141056332D01*
X129811874Y-141047309D01*
X129815389Y-141041638D01*
X129822127Y-141038425D01*
X129835004Y-141027268D01*
X129891947Y-140993592D01*
X129988148Y-140897389D01*
X130002939Y-140884758D01*
X130082464Y-140826981D01*
X130222981Y-140686464D01*
X130339787Y-140525694D01*
X130430005Y-140348632D01*
X130491413Y-140159636D01*
X130522500Y-139963361D01*
X130522500Y-139764639D01*
X130491413Y-139568364D01*
X130491409Y-139568352D01*
X130490869Y-139566099D01*
X130490913Y-139565209D01*
X130490651Y-139563552D01*
X130490999Y-139563496D01*
X130494360Y-139496316D01*
X130523760Y-139449473D01*
X139678713Y-130294521D01*
X139678716Y-130294520D01*
X139790520Y-130182716D01*
X139840639Y-130095904D01*
X139869577Y-130045785D01*
X139910500Y-129893058D01*
X139910500Y-129734943D01*
X139910500Y-128885258D01*
X145349502Y-128885258D01*
X145349502Y-129114741D01*
X145356930Y-129171158D01*
X145379454Y-129342238D01*
X145416489Y-129480457D01*
X145438844Y-129563887D01*
X145526652Y-129775876D01*
X145526659Y-129775890D01*
X145641394Y-129974617D01*
X145781083Y-130156661D01*
X145781091Y-130156670D01*
X145943332Y-130318911D01*
X145943340Y-130318918D01*
X146125384Y-130458607D01*
X146125387Y-130458608D01*
X146125390Y-130458611D01*
X146324114Y-130573344D01*
X146324119Y-130573346D01*
X146324125Y-130573349D01*
X146415482Y-130611190D01*
X146536115Y-130661158D01*
X146757764Y-130720548D01*
X146985268Y-130750500D01*
X146985275Y-130750500D01*
X147214729Y-130750500D01*
X147214736Y-130750500D01*
X147442240Y-130720548D01*
X147663889Y-130661158D01*
X147875890Y-130573344D01*
X148074614Y-130458611D01*
X148256663Y-130318919D01*
X148256667Y-130318914D01*
X148256672Y-130318911D01*
X148418913Y-130156670D01*
X148418916Y-130156665D01*
X148418921Y-130156661D01*
X148558613Y-129974612D01*
X148673346Y-129775888D01*
X148761160Y-129563887D01*
X148820550Y-129342238D01*
X148850502Y-129114734D01*
X148850502Y-128885266D01*
X148820550Y-128657762D01*
X148761160Y-128436113D01*
X148673346Y-128224112D01*
X148558613Y-128025388D01*
X148558610Y-128025385D01*
X148558609Y-128025382D01*
X148423855Y-127849769D01*
X148418921Y-127843339D01*
X148418920Y-127843338D01*
X148418913Y-127843330D01*
X148256672Y-127681089D01*
X148256663Y-127681081D01*
X148074619Y-127541392D01*
X148074614Y-127541389D01*
X147875890Y-127426656D01*
X147875878Y-127426650D01*
X147862607Y-127421153D01*
X153199500Y-127421153D01*
X153199500Y-127578846D01*
X153230261Y-127733489D01*
X153230264Y-127733501D01*
X153290602Y-127879172D01*
X153290609Y-127879185D01*
X153378210Y-128010288D01*
X153378213Y-128010292D01*
X153489707Y-128121786D01*
X153489711Y-128121789D01*
X153620814Y-128209390D01*
X153620827Y-128209397D01*
X153766498Y-128269735D01*
X153766503Y-128269737D01*
X153921153Y-128300499D01*
X153921156Y-128300500D01*
X153921158Y-128300500D01*
X154078844Y-128300500D01*
X154078845Y-128300499D01*
X154233497Y-128269737D01*
X154379179Y-128209394D01*
X154510289Y-128121789D01*
X154621789Y-128010289D01*
X154709394Y-127879179D01*
X154769737Y-127733497D01*
X154800500Y-127578842D01*
X154800500Y-127421158D01*
X154800500Y-127421155D01*
X154800499Y-127421153D01*
X154793512Y-127386027D01*
X154769737Y-127266503D01*
X154723384Y-127154595D01*
X154709397Y-127120827D01*
X154709390Y-127120814D01*
X154621398Y-126989125D01*
X154600520Y-126922447D01*
X154600500Y-126920234D01*
X154600500Y-125397682D01*
X155700000Y-125397682D01*
X155700000Y-125602317D01*
X155732009Y-125804417D01*
X155795244Y-125999031D01*
X155888141Y-126181350D01*
X155888147Y-126181359D01*
X155920523Y-126225921D01*
X155920524Y-126225922D01*
X156517038Y-125629408D01*
X156534076Y-125692992D01*
X156599902Y-125807006D01*
X156692994Y-125900098D01*
X156807008Y-125965924D01*
X156870590Y-125982961D01*
X156274076Y-126579474D01*
X156318650Y-126611859D01*
X156500968Y-126704755D01*
X156695582Y-126767990D01*
X156897683Y-126800000D01*
X157102317Y-126800000D01*
X157304417Y-126767990D01*
X157499031Y-126704755D01*
X157681349Y-126611859D01*
X157725921Y-126579474D01*
X157129408Y-125982961D01*
X157192992Y-125965924D01*
X157307006Y-125900098D01*
X157400098Y-125807006D01*
X157465924Y-125692992D01*
X157482961Y-125629408D01*
X158079474Y-126225921D01*
X158111859Y-126181349D01*
X158204755Y-125999031D01*
X158267990Y-125804417D01*
X158300000Y-125602317D01*
X158300000Y-125397682D01*
X160500000Y-125397682D01*
X160500000Y-125602317D01*
X160532009Y-125804417D01*
X160595244Y-125999031D01*
X160688141Y-126181350D01*
X160688147Y-126181359D01*
X160720523Y-126225921D01*
X160720524Y-126225922D01*
X161317038Y-125629408D01*
X161334076Y-125692992D01*
X161399902Y-125807006D01*
X161492994Y-125900098D01*
X161607008Y-125965924D01*
X161670590Y-125982961D01*
X161074076Y-126579474D01*
X161118650Y-126611859D01*
X161300968Y-126704755D01*
X161495582Y-126767990D01*
X161697683Y-126800000D01*
X161902317Y-126800000D01*
X162104417Y-126767990D01*
X162299031Y-126704755D01*
X162481349Y-126611859D01*
X162525921Y-126579474D01*
X161929408Y-125982961D01*
X161992992Y-125965924D01*
X162107006Y-125900098D01*
X162200098Y-125807006D01*
X162265924Y-125692992D01*
X162282961Y-125629409D01*
X162879474Y-126225922D01*
X162879474Y-126225921D01*
X162911859Y-126181349D01*
X163004755Y-125999031D01*
X163067990Y-125804417D01*
X163100000Y-125602317D01*
X163100000Y-125397682D01*
X163067990Y-125195582D01*
X163004755Y-125000968D01*
X162911859Y-124818650D01*
X162879474Y-124774077D01*
X162879474Y-124774076D01*
X162282961Y-125370590D01*
X162265924Y-125307008D01*
X162200098Y-125192994D01*
X162107006Y-125099902D01*
X161992992Y-125034076D01*
X161929407Y-125017038D01*
X162525922Y-124420524D01*
X162525921Y-124420523D01*
X162481359Y-124388147D01*
X162481350Y-124388141D01*
X162299031Y-124295244D01*
X162104417Y-124232009D01*
X161902317Y-124200000D01*
X161697683Y-124200000D01*
X161495582Y-124232009D01*
X161300968Y-124295244D01*
X161118644Y-124388143D01*
X161074077Y-124420523D01*
X161074077Y-124420524D01*
X161670592Y-125017038D01*
X161607008Y-125034076D01*
X161492994Y-125099902D01*
X161399902Y-125192994D01*
X161334076Y-125307008D01*
X161317038Y-125370591D01*
X160720524Y-124774077D01*
X160720523Y-124774077D01*
X160688143Y-124818644D01*
X160595244Y-125000968D01*
X160532009Y-125195582D01*
X160500000Y-125397682D01*
X158300000Y-125397682D01*
X158267990Y-125195582D01*
X158204755Y-125000968D01*
X158111859Y-124818650D01*
X158079474Y-124774077D01*
X158079474Y-124774076D01*
X157482961Y-125370590D01*
X157465924Y-125307008D01*
X157400098Y-125192994D01*
X157307006Y-125099902D01*
X157192992Y-125034076D01*
X157129407Y-125017038D01*
X157725922Y-124420524D01*
X157725921Y-124420523D01*
X157681359Y-124388147D01*
X157681350Y-124388141D01*
X157499031Y-124295244D01*
X157304417Y-124232009D01*
X157102317Y-124200000D01*
X156897683Y-124200000D01*
X156695582Y-124232009D01*
X156500968Y-124295244D01*
X156318644Y-124388143D01*
X156274077Y-124420523D01*
X156274077Y-124420524D01*
X156870592Y-125017038D01*
X156807008Y-125034076D01*
X156692994Y-125099902D01*
X156599902Y-125192994D01*
X156534076Y-125307008D01*
X156517038Y-125370591D01*
X155920524Y-124774077D01*
X155920523Y-124774077D01*
X155888143Y-124818644D01*
X155795244Y-125000968D01*
X155732009Y-125195582D01*
X155700000Y-125397682D01*
X154600500Y-125397682D01*
X154600500Y-122397648D01*
X155699500Y-122397648D01*
X155699500Y-122602351D01*
X155731522Y-122804534D01*
X155794781Y-122999223D01*
X155887715Y-123181613D01*
X156008028Y-123347213D01*
X156152786Y-123491971D01*
X156307749Y-123604556D01*
X156318390Y-123612287D01*
X156434607Y-123671503D01*
X156500776Y-123705218D01*
X156500778Y-123705218D01*
X156500781Y-123705220D01*
X156605137Y-123739127D01*
X156695465Y-123768477D01*
X156796557Y-123784488D01*
X156897648Y-123800500D01*
X156897649Y-123800500D01*
X157102351Y-123800500D01*
X157102352Y-123800500D01*
X157304534Y-123768477D01*
X157499219Y-123705220D01*
X157681610Y-123612287D01*
X157774590Y-123544732D01*
X157847213Y-123491971D01*
X157847215Y-123491968D01*
X157847219Y-123491966D01*
X157991966Y-123347219D01*
X157991968Y-123347215D01*
X157991971Y-123347213D01*
X158051024Y-123265932D01*
X158112287Y-123181610D01*
X158205220Y-122999219D01*
X158268477Y-122804534D01*
X158300500Y-122602352D01*
X158300500Y-122397648D01*
X160499500Y-122397648D01*
X160499500Y-122602351D01*
X160531522Y-122804534D01*
X160594781Y-122999223D01*
X160687715Y-123181613D01*
X160808028Y-123347213D01*
X160952786Y-123491971D01*
X161107749Y-123604556D01*
X161118390Y-123612287D01*
X161234607Y-123671503D01*
X161300776Y-123705218D01*
X161300778Y-123705218D01*
X161300781Y-123705220D01*
X161405137Y-123739127D01*
X161495465Y-123768477D01*
X161596557Y-123784488D01*
X161697648Y-123800500D01*
X161697649Y-123800500D01*
X161902351Y-123800500D01*
X161902352Y-123800500D01*
X162104534Y-123768477D01*
X162299219Y-123705220D01*
X162481610Y-123612287D01*
X162574590Y-123544732D01*
X162647213Y-123491971D01*
X162647215Y-123491968D01*
X162647219Y-123491966D01*
X162791966Y-123347219D01*
X162791968Y-123347215D01*
X162791971Y-123347213D01*
X162851024Y-123265932D01*
X162912287Y-123181610D01*
X163005220Y-122999219D01*
X163068477Y-122804534D01*
X163100500Y-122602352D01*
X163100500Y-122397648D01*
X163068477Y-122195466D01*
X163005220Y-122000781D01*
X163005218Y-122000778D01*
X163005218Y-122000776D01*
X162945097Y-121882784D01*
X162912287Y-121818390D01*
X162882392Y-121777243D01*
X162791971Y-121652786D01*
X162647213Y-121508028D01*
X162481613Y-121387715D01*
X162481612Y-121387714D01*
X162481610Y-121387713D01*
X162424653Y-121358691D01*
X162299223Y-121294781D01*
X162104534Y-121231522D01*
X161929995Y-121203878D01*
X161902352Y-121199500D01*
X161697648Y-121199500D01*
X161673329Y-121203351D01*
X161495465Y-121231522D01*
X161300776Y-121294781D01*
X161118386Y-121387715D01*
X160952786Y-121508028D01*
X160808028Y-121652786D01*
X160687715Y-121818386D01*
X160594781Y-122000776D01*
X160531522Y-122195465D01*
X160499500Y-122397648D01*
X158300500Y-122397648D01*
X158268477Y-122195466D01*
X158205220Y-122000781D01*
X158205218Y-122000778D01*
X158205218Y-122000776D01*
X158145097Y-121882784D01*
X158112287Y-121818390D01*
X158082392Y-121777243D01*
X157991971Y-121652786D01*
X157847213Y-121508028D01*
X157681613Y-121387715D01*
X157681612Y-121387714D01*
X157681610Y-121387713D01*
X157624653Y-121358691D01*
X157499223Y-121294781D01*
X157304534Y-121231522D01*
X157129995Y-121203878D01*
X157102352Y-121199500D01*
X156897648Y-121199500D01*
X156873329Y-121203351D01*
X156695465Y-121231522D01*
X156500776Y-121294781D01*
X156318386Y-121387715D01*
X156152786Y-121508028D01*
X156008028Y-121652786D01*
X155887715Y-121818386D01*
X155794781Y-122000776D01*
X155731522Y-122195465D01*
X155699500Y-122397648D01*
X154600500Y-122397648D01*
X154600500Y-117897682D01*
X155700000Y-117897682D01*
X155700000Y-118102317D01*
X155732009Y-118304417D01*
X155795244Y-118499031D01*
X155888141Y-118681350D01*
X155888147Y-118681359D01*
X155920523Y-118725921D01*
X155920524Y-118725922D01*
X156517038Y-118129408D01*
X156534076Y-118192992D01*
X156599902Y-118307006D01*
X156692994Y-118400098D01*
X156807008Y-118465924D01*
X156870590Y-118482961D01*
X156274076Y-119079474D01*
X156318650Y-119111859D01*
X156500968Y-119204755D01*
X156695582Y-119267990D01*
X156897683Y-119300000D01*
X157102317Y-119300000D01*
X157304417Y-119267990D01*
X157499031Y-119204755D01*
X157681349Y-119111859D01*
X157725921Y-119079474D01*
X157129408Y-118482961D01*
X157192992Y-118465924D01*
X157307006Y-118400098D01*
X157400098Y-118307006D01*
X157465924Y-118192992D01*
X157482961Y-118129408D01*
X158079474Y-118725921D01*
X158111859Y-118681349D01*
X158204755Y-118499031D01*
X158267990Y-118304417D01*
X158300000Y-118102317D01*
X158300000Y-117897682D01*
X160500000Y-117897682D01*
X160500000Y-118102317D01*
X160532009Y-118304417D01*
X160595244Y-118499031D01*
X160688141Y-118681350D01*
X160688147Y-118681359D01*
X160720523Y-118725921D01*
X160720524Y-118725922D01*
X161317038Y-118129408D01*
X161334076Y-118192992D01*
X161399902Y-118307006D01*
X161492994Y-118400098D01*
X161607008Y-118465924D01*
X161670590Y-118482961D01*
X161074076Y-119079474D01*
X161118650Y-119111859D01*
X161300968Y-119204755D01*
X161495582Y-119267990D01*
X161697683Y-119300000D01*
X161902317Y-119300000D01*
X162104417Y-119267990D01*
X162299031Y-119204755D01*
X162481349Y-119111859D01*
X162525921Y-119079474D01*
X161929408Y-118482961D01*
X161992992Y-118465924D01*
X162107006Y-118400098D01*
X162200098Y-118307006D01*
X162265924Y-118192992D01*
X162282961Y-118129409D01*
X162879474Y-118725922D01*
X162879474Y-118725921D01*
X162911859Y-118681349D01*
X163004755Y-118499031D01*
X163067990Y-118304417D01*
X163100000Y-118102317D01*
X163100000Y-117897682D01*
X163067990Y-117695582D01*
X163004755Y-117500968D01*
X162911859Y-117318650D01*
X162879474Y-117274077D01*
X162879474Y-117274076D01*
X162282961Y-117870590D01*
X162265924Y-117807008D01*
X162200098Y-117692994D01*
X162107006Y-117599902D01*
X161992992Y-117534076D01*
X161929407Y-117517038D01*
X162525922Y-116920524D01*
X162525921Y-116920523D01*
X162481359Y-116888147D01*
X162481350Y-116888141D01*
X162299031Y-116795244D01*
X162104417Y-116732009D01*
X161902317Y-116700000D01*
X161697683Y-116700000D01*
X161495582Y-116732009D01*
X161300968Y-116795244D01*
X161118644Y-116888143D01*
X161074077Y-116920523D01*
X161074077Y-116920524D01*
X161670592Y-117517038D01*
X161607008Y-117534076D01*
X161492994Y-117599902D01*
X161399902Y-117692994D01*
X161334076Y-117807008D01*
X161317038Y-117870591D01*
X160720524Y-117274077D01*
X160720523Y-117274077D01*
X160688143Y-117318644D01*
X160595244Y-117500968D01*
X160532009Y-117695582D01*
X160500000Y-117897682D01*
X158300000Y-117897682D01*
X158267990Y-117695582D01*
X158204755Y-117500968D01*
X158111859Y-117318650D01*
X158079474Y-117274077D01*
X158079474Y-117274076D01*
X157482961Y-117870590D01*
X157465924Y-117807008D01*
X157400098Y-117692994D01*
X157307006Y-117599902D01*
X157192992Y-117534076D01*
X157129407Y-117517038D01*
X157725922Y-116920524D01*
X157725921Y-116920523D01*
X157681359Y-116888147D01*
X157681350Y-116888141D01*
X157499031Y-116795244D01*
X157304417Y-116732009D01*
X157102317Y-116700000D01*
X156897683Y-116700000D01*
X156695582Y-116732009D01*
X156500968Y-116795244D01*
X156318644Y-116888143D01*
X156274077Y-116920523D01*
X156274077Y-116920524D01*
X156870592Y-117517038D01*
X156807008Y-117534076D01*
X156692994Y-117599902D01*
X156599902Y-117692994D01*
X156534076Y-117807008D01*
X156517038Y-117870591D01*
X155920524Y-117274077D01*
X155920523Y-117274077D01*
X155888143Y-117318644D01*
X155795244Y-117500968D01*
X155732009Y-117695582D01*
X155700000Y-117897682D01*
X154600500Y-117897682D01*
X154600500Y-114897648D01*
X155699500Y-114897648D01*
X155699500Y-115102351D01*
X155731522Y-115304534D01*
X155794781Y-115499223D01*
X155887715Y-115681613D01*
X156008028Y-115847213D01*
X156152786Y-115991971D01*
X156307749Y-116104556D01*
X156318390Y-116112287D01*
X156434607Y-116171503D01*
X156500776Y-116205218D01*
X156500778Y-116205218D01*
X156500781Y-116205220D01*
X156605137Y-116239127D01*
X156695465Y-116268477D01*
X156796557Y-116284488D01*
X156897648Y-116300500D01*
X156897649Y-116300500D01*
X157102351Y-116300500D01*
X157102352Y-116300500D01*
X157304534Y-116268477D01*
X157499219Y-116205220D01*
X157681610Y-116112287D01*
X157774590Y-116044732D01*
X157847213Y-115991971D01*
X157847215Y-115991968D01*
X157847219Y-115991966D01*
X157991966Y-115847219D01*
X157991968Y-115847215D01*
X157991971Y-115847213D01*
X158071088Y-115738316D01*
X158112287Y-115681610D01*
X158205220Y-115499219D01*
X158268477Y-115304534D01*
X158300500Y-115102352D01*
X158300500Y-114897648D01*
X160499500Y-114897648D01*
X160499500Y-115102351D01*
X160531522Y-115304534D01*
X160594781Y-115499223D01*
X160687715Y-115681613D01*
X160808028Y-115847213D01*
X160952786Y-115991971D01*
X161107749Y-116104556D01*
X161118390Y-116112287D01*
X161234607Y-116171503D01*
X161300776Y-116205218D01*
X161300778Y-116205218D01*
X161300781Y-116205220D01*
X161405137Y-116239127D01*
X161495465Y-116268477D01*
X161596557Y-116284488D01*
X161697648Y-116300500D01*
X161697649Y-116300500D01*
X161902351Y-116300500D01*
X161902352Y-116300500D01*
X162104534Y-116268477D01*
X162299219Y-116205220D01*
X162481610Y-116112287D01*
X162574590Y-116044732D01*
X162647213Y-115991971D01*
X162647215Y-115991968D01*
X162647219Y-115991966D01*
X162791966Y-115847219D01*
X162791968Y-115847215D01*
X162791971Y-115847213D01*
X162871088Y-115738316D01*
X162912287Y-115681610D01*
X163005220Y-115499219D01*
X163068477Y-115304534D01*
X163100500Y-115102352D01*
X163100500Y-114897648D01*
X163083368Y-114789485D01*
X163068477Y-114695465D01*
X163005218Y-114500776D01*
X162971503Y-114434607D01*
X162912287Y-114318390D01*
X162904556Y-114307749D01*
X162791971Y-114152786D01*
X162647213Y-114008028D01*
X162481613Y-113887715D01*
X162481612Y-113887714D01*
X162481610Y-113887713D01*
X162424653Y-113858691D01*
X162299223Y-113794781D01*
X162104534Y-113731522D01*
X161929995Y-113703878D01*
X161902352Y-113699500D01*
X161697648Y-113699500D01*
X161673329Y-113703351D01*
X161495465Y-113731522D01*
X161300776Y-113794781D01*
X161118386Y-113887715D01*
X160952786Y-114008028D01*
X160808028Y-114152786D01*
X160687715Y-114318386D01*
X160594781Y-114500776D01*
X160531522Y-114695465D01*
X160499500Y-114897648D01*
X158300500Y-114897648D01*
X158283368Y-114789485D01*
X158268477Y-114695465D01*
X158205218Y-114500776D01*
X158171503Y-114434607D01*
X158112287Y-114318390D01*
X158104556Y-114307749D01*
X157991971Y-114152786D01*
X157847213Y-114008028D01*
X157681613Y-113887715D01*
X157681612Y-113887714D01*
X157681610Y-113887713D01*
X157624653Y-113858691D01*
X157499223Y-113794781D01*
X157304534Y-113731522D01*
X157129995Y-113703878D01*
X157102352Y-113699500D01*
X156897648Y-113699500D01*
X156873329Y-113703351D01*
X156695465Y-113731522D01*
X156500776Y-113794781D01*
X156318386Y-113887715D01*
X156152786Y-114008028D01*
X156008028Y-114152786D01*
X155887715Y-114318386D01*
X155794781Y-114500776D01*
X155731522Y-114695465D01*
X155699500Y-114897648D01*
X154600500Y-114897648D01*
X154600500Y-110800097D01*
X154620185Y-110733058D01*
X154636819Y-110712416D01*
X155156308Y-110192927D01*
X155724029Y-109625205D01*
X155785350Y-109591722D01*
X155855042Y-109596706D01*
X155910975Y-109638578D01*
X155935392Y-109704042D01*
X155920540Y-109772315D01*
X155912027Y-109785772D01*
X155888141Y-109818648D01*
X155795244Y-110000968D01*
X155732009Y-110195582D01*
X155700000Y-110397682D01*
X155700000Y-110602317D01*
X155732009Y-110804417D01*
X155795244Y-110999031D01*
X155888141Y-111181350D01*
X155888147Y-111181359D01*
X155920523Y-111225921D01*
X155920524Y-111225922D01*
X156517038Y-110629407D01*
X156534076Y-110692992D01*
X156599902Y-110807006D01*
X156692994Y-110900098D01*
X156807008Y-110965924D01*
X156870590Y-110982961D01*
X156274076Y-111579474D01*
X156318650Y-111611859D01*
X156500968Y-111704755D01*
X156695582Y-111767990D01*
X156897683Y-111800000D01*
X157102317Y-111800000D01*
X157304417Y-111767990D01*
X157499031Y-111704755D01*
X157681349Y-111611859D01*
X157725921Y-111579474D01*
X157129408Y-110982961D01*
X157192992Y-110965924D01*
X157307006Y-110900098D01*
X157400098Y-110807006D01*
X157465924Y-110692992D01*
X157482961Y-110629408D01*
X158079474Y-111225921D01*
X158111859Y-111181349D01*
X158204755Y-110999031D01*
X158267990Y-110804417D01*
X158300000Y-110602317D01*
X158300000Y-110397682D01*
X160500000Y-110397682D01*
X160500000Y-110602317D01*
X160532009Y-110804417D01*
X160595244Y-110999031D01*
X160688141Y-111181350D01*
X160688147Y-111181359D01*
X160720523Y-111225921D01*
X160720524Y-111225922D01*
X161317038Y-110629408D01*
X161334076Y-110692992D01*
X161399902Y-110807006D01*
X161492994Y-110900098D01*
X161607008Y-110965924D01*
X161670590Y-110982961D01*
X161074076Y-111579474D01*
X161118650Y-111611859D01*
X161300968Y-111704755D01*
X161495582Y-111767990D01*
X161697683Y-111800000D01*
X161902317Y-111800000D01*
X162104417Y-111767990D01*
X162299031Y-111704755D01*
X162481349Y-111611859D01*
X162525921Y-111579474D01*
X161929408Y-110982961D01*
X161992992Y-110965924D01*
X162107006Y-110900098D01*
X162200098Y-110807006D01*
X162265924Y-110692992D01*
X162282961Y-110629409D01*
X162879474Y-111225922D01*
X162879474Y-111225921D01*
X162911859Y-111181349D01*
X163004755Y-110999031D01*
X163067990Y-110804417D01*
X163100000Y-110602317D01*
X163100000Y-110397682D01*
X163067990Y-110195582D01*
X163004755Y-110000968D01*
X162911859Y-109818650D01*
X162879474Y-109774077D01*
X162879474Y-109774076D01*
X162282961Y-110370590D01*
X162265924Y-110307008D01*
X162200098Y-110192994D01*
X162107006Y-110099902D01*
X161992992Y-110034076D01*
X161929407Y-110017038D01*
X162525922Y-109420524D01*
X162525921Y-109420523D01*
X162481359Y-109388147D01*
X162481350Y-109388141D01*
X162299031Y-109295244D01*
X162104417Y-109232009D01*
X161902317Y-109200000D01*
X161697683Y-109200000D01*
X161495582Y-109232009D01*
X161300968Y-109295244D01*
X161118644Y-109388143D01*
X161074077Y-109420523D01*
X161074077Y-109420524D01*
X161670592Y-110017038D01*
X161607008Y-110034076D01*
X161492994Y-110099902D01*
X161399902Y-110192994D01*
X161334076Y-110307008D01*
X161317038Y-110370591D01*
X160720524Y-109774077D01*
X160720523Y-109774077D01*
X160688143Y-109818644D01*
X160595244Y-110000968D01*
X160532009Y-110195582D01*
X160500000Y-110397682D01*
X158300000Y-110397682D01*
X158267990Y-110195582D01*
X158204755Y-110000968D01*
X158111859Y-109818650D01*
X158079474Y-109774077D01*
X158079474Y-109774076D01*
X157482961Y-110370590D01*
X157465924Y-110307008D01*
X157400098Y-110192994D01*
X157307006Y-110099902D01*
X157192992Y-110034076D01*
X157129407Y-110017038D01*
X157725922Y-109420524D01*
X157725921Y-109420523D01*
X157681359Y-109388147D01*
X157681350Y-109388141D01*
X157499031Y-109295244D01*
X157304417Y-109232009D01*
X157102317Y-109200000D01*
X156897683Y-109200000D01*
X156695582Y-109232009D01*
X156500968Y-109295244D01*
X156318648Y-109388141D01*
X156285772Y-109412027D01*
X156219966Y-109435506D01*
X156151912Y-109419680D01*
X156103218Y-109369574D01*
X156089343Y-109301095D01*
X156114693Y-109235987D01*
X156125199Y-109224035D01*
X156555159Y-108794075D01*
X156616480Y-108760592D01*
X156681154Y-108763826D01*
X156695466Y-108768477D01*
X156897648Y-108800500D01*
X156897649Y-108800500D01*
X157102351Y-108800500D01*
X157102352Y-108800500D01*
X157304534Y-108768477D01*
X157499219Y-108705220D01*
X157681610Y-108612287D01*
X157789605Y-108533825D01*
X157847213Y-108491971D01*
X157847215Y-108491968D01*
X157847219Y-108491966D01*
X157991966Y-108347219D01*
X157991968Y-108347215D01*
X157991971Y-108347213D01*
X158074595Y-108233489D01*
X158112287Y-108181610D01*
X158205220Y-107999219D01*
X158268477Y-107804534D01*
X158300500Y-107602352D01*
X158300500Y-107397648D01*
X160499500Y-107397648D01*
X160499500Y-107602351D01*
X160531522Y-107804534D01*
X160594781Y-107999223D01*
X160635350Y-108078842D01*
X160672736Y-108152217D01*
X160687715Y-108181613D01*
X160808028Y-108347213D01*
X160952786Y-108491971D01*
X161107749Y-108604556D01*
X161118390Y-108612287D01*
X161234607Y-108671503D01*
X161300776Y-108705218D01*
X161300778Y-108705218D01*
X161300781Y-108705220D01*
X161405137Y-108739127D01*
X161495465Y-108768477D01*
X161596557Y-108784488D01*
X161697648Y-108800500D01*
X161697649Y-108800500D01*
X161902351Y-108800500D01*
X161902352Y-108800500D01*
X162104534Y-108768477D01*
X162299219Y-108705220D01*
X162481610Y-108612287D01*
X162589605Y-108533825D01*
X162647213Y-108491971D01*
X162647215Y-108491968D01*
X162647219Y-108491966D01*
X162791966Y-108347219D01*
X162791968Y-108347215D01*
X162791971Y-108347213D01*
X162874595Y-108233489D01*
X162912287Y-108181610D01*
X163005220Y-107999219D01*
X163068477Y-107804534D01*
X163100500Y-107602352D01*
X163100500Y-107397648D01*
X163068477Y-107195466D01*
X163005220Y-107000781D01*
X163005218Y-107000778D01*
X163005218Y-107000776D01*
X162955479Y-106903159D01*
X162912287Y-106818390D01*
X162879563Y-106773349D01*
X162791971Y-106652786D01*
X162647213Y-106508028D01*
X162481613Y-106387715D01*
X162481612Y-106387714D01*
X162481610Y-106387713D01*
X162420667Y-106356661D01*
X162299223Y-106294781D01*
X162104534Y-106231522D01*
X161929995Y-106203878D01*
X161902352Y-106199500D01*
X161697648Y-106199500D01*
X161673329Y-106203351D01*
X161495465Y-106231522D01*
X161300776Y-106294781D01*
X161118386Y-106387715D01*
X160952786Y-106508028D01*
X160808028Y-106652786D01*
X160687715Y-106818386D01*
X160594781Y-107000776D01*
X160531522Y-107195465D01*
X160499500Y-107397648D01*
X158300500Y-107397648D01*
X158268477Y-107195466D01*
X158205220Y-107000781D01*
X158205218Y-107000778D01*
X158205218Y-107000776D01*
X158155479Y-106903159D01*
X158112287Y-106818390D01*
X158079563Y-106773349D01*
X157991971Y-106652786D01*
X157847213Y-106508028D01*
X157681613Y-106387715D01*
X157681612Y-106387714D01*
X157681610Y-106387713D01*
X157620667Y-106356661D01*
X157499223Y-106294781D01*
X157304534Y-106231522D01*
X157129995Y-106203878D01*
X157102352Y-106199500D01*
X156897648Y-106199500D01*
X156873329Y-106203351D01*
X156695465Y-106231522D01*
X156500776Y-106294781D01*
X156318386Y-106387715D01*
X156152786Y-106508028D01*
X156008028Y-106652786D01*
X155887715Y-106818386D01*
X155794781Y-107000776D01*
X155731522Y-107195465D01*
X155699500Y-107397648D01*
X155699500Y-107602352D01*
X155705740Y-107641747D01*
X155731523Y-107804535D01*
X155736172Y-107818845D01*
X155738165Y-107888687D01*
X155705921Y-107944841D01*
X153631286Y-110019478D01*
X153519481Y-110131282D01*
X153519480Y-110131284D01*
X153483890Y-110192928D01*
X153440423Y-110268215D01*
X153399499Y-110420943D01*
X153399499Y-110420945D01*
X153399499Y-110589046D01*
X153399500Y-110589059D01*
X153399500Y-126920234D01*
X153379815Y-126987273D01*
X153378602Y-126989125D01*
X153290609Y-127120814D01*
X153290602Y-127120827D01*
X153230264Y-127266498D01*
X153230261Y-127266510D01*
X153199500Y-127421153D01*
X147862607Y-127421153D01*
X147663889Y-127338842D01*
X147442240Y-127279452D01*
X147404217Y-127274446D01*
X147214743Y-127249500D01*
X147214736Y-127249500D01*
X146985268Y-127249500D01*
X146985260Y-127249500D01*
X146768717Y-127278009D01*
X146757764Y-127279452D01*
X146664078Y-127304554D01*
X146536114Y-127338842D01*
X146324125Y-127426650D01*
X146324111Y-127426657D01*
X146125384Y-127541392D01*
X145943340Y-127681081D01*
X145781083Y-127843338D01*
X145641394Y-128025382D01*
X145526659Y-128224109D01*
X145526652Y-128224123D01*
X145438844Y-128436112D01*
X145379455Y-128657759D01*
X145379453Y-128657770D01*
X145349502Y-128885258D01*
X139910500Y-128885258D01*
X139910500Y-107921153D01*
X150199500Y-107921153D01*
X150199500Y-108078846D01*
X150230261Y-108233489D01*
X150230264Y-108233501D01*
X150290602Y-108379172D01*
X150290609Y-108379185D01*
X150378210Y-108510288D01*
X150378213Y-108510292D01*
X150489707Y-108621786D01*
X150489711Y-108621789D01*
X150620814Y-108709390D01*
X150620827Y-108709397D01*
X150695546Y-108740346D01*
X150766503Y-108769737D01*
X150888868Y-108794077D01*
X150921153Y-108800499D01*
X150921156Y-108800500D01*
X150921158Y-108800500D01*
X151078844Y-108800500D01*
X151078845Y-108800499D01*
X151233497Y-108769737D01*
X151379179Y-108709394D01*
X151510289Y-108621789D01*
X151621789Y-108510289D01*
X151709394Y-108379179D01*
X151769737Y-108233497D01*
X151800500Y-108078842D01*
X151800500Y-107921158D01*
X151800500Y-107921155D01*
X151800499Y-107921153D01*
X151794041Y-107888687D01*
X151769737Y-107766503D01*
X151767447Y-107760974D01*
X151709397Y-107620827D01*
X151709390Y-107620814D01*
X151621398Y-107489125D01*
X151600520Y-107422447D01*
X151600500Y-107420234D01*
X151600500Y-91300096D01*
X151620185Y-91233057D01*
X151636814Y-91212420D01*
X155139169Y-87710064D01*
X155200490Y-87676581D01*
X155246246Y-87675274D01*
X155405514Y-87700500D01*
X155405519Y-87700500D01*
X155594486Y-87700500D01*
X155781118Y-87670940D01*
X155811753Y-87660986D01*
X155960832Y-87612547D01*
X156129199Y-87526760D01*
X156282073Y-87415690D01*
X156415690Y-87282073D01*
X156526760Y-87129199D01*
X156612547Y-86960832D01*
X156670940Y-86781118D01*
X156700500Y-86594486D01*
X156700500Y-86405513D01*
X156675274Y-86246246D01*
X156684228Y-86176953D01*
X156710063Y-86139170D01*
X159088506Y-83760728D01*
X159088511Y-83760724D01*
X159098714Y-83750520D01*
X159098716Y-83750520D01*
X159210520Y-83638716D01*
X159276441Y-83524537D01*
X159289577Y-83501785D01*
X159330501Y-83349057D01*
X159330501Y-83190942D01*
X159330501Y-83183347D01*
X159330500Y-83183329D01*
X159330500Y-60777799D01*
X159350185Y-60710760D01*
X159402989Y-60665005D01*
X159472147Y-60655061D01*
X159523390Y-60674696D01*
X159549769Y-60692322D01*
X159722749Y-60763973D01*
X159871675Y-60793596D01*
X159906379Y-60800499D01*
X159906383Y-60800500D01*
X159906384Y-60800500D01*
X160093617Y-60800500D01*
X160093618Y-60800499D01*
X160277251Y-60763973D01*
X160450231Y-60692322D01*
X160605908Y-60588302D01*
X160738302Y-60455908D01*
X160842322Y-60300231D01*
X160913973Y-60127251D01*
X160950500Y-59943616D01*
X160950500Y-59056384D01*
X160913973Y-58872749D01*
X160842322Y-58699769D01*
X160842321Y-58699768D01*
X160842318Y-58699762D01*
X160738302Y-58544092D01*
X160738299Y-58544088D01*
X160605911Y-58411700D01*
X160605907Y-58411697D01*
X160450237Y-58307681D01*
X160450228Y-58307676D01*
X160277251Y-58236027D01*
X160277243Y-58236025D01*
X160093620Y-58199500D01*
X160093616Y-58199500D01*
X159906384Y-58199500D01*
X159906379Y-58199500D01*
X159722756Y-58236025D01*
X159722748Y-58236027D01*
X159549771Y-58307676D01*
X159549757Y-58307684D01*
X159433890Y-58385104D01*
X159367213Y-58405982D01*
X159299833Y-58387497D01*
X159296110Y-58385104D01*
X159180242Y-58307684D01*
X159180228Y-58307676D01*
X159007251Y-58236027D01*
X159007243Y-58236025D01*
X158823620Y-58199500D01*
X158823616Y-58199500D01*
X158636384Y-58199500D01*
X158636379Y-58199500D01*
X158452756Y-58236025D01*
X158452744Y-58236028D01*
X158306692Y-58296525D01*
X158237223Y-58303994D01*
X158184929Y-58281231D01*
X158152089Y-58256647D01*
X158152086Y-58256645D01*
X158017379Y-58206403D01*
X158017372Y-58206401D01*
X157957844Y-58200000D01*
X157710000Y-58200000D01*
X157710000Y-59333011D01*
X157700060Y-59315795D01*
X157644205Y-59259940D01*
X157575796Y-59220444D01*
X157499496Y-59200000D01*
X157420504Y-59200000D01*
X157344204Y-59220444D01*
X157275795Y-59259940D01*
X157219940Y-59315795D01*
X157180444Y-59384204D01*
X157160000Y-59460504D01*
X157160000Y-59539496D01*
X157180444Y-59615796D01*
X157219940Y-59684205D01*
X157275795Y-59740060D01*
X157344204Y-59779556D01*
X157420504Y-59800000D01*
X157499496Y-59800000D01*
X157575796Y-59779556D01*
X157644205Y-59740060D01*
X157700060Y-59684205D01*
X157710000Y-59666988D01*
X157710000Y-60800000D01*
X157957828Y-60800000D01*
X157957839Y-60799999D01*
X157992242Y-60796300D01*
X158061002Y-60808704D01*
X158112140Y-60856313D01*
X158129500Y-60919589D01*
X158129500Y-82969902D01*
X158109815Y-83036941D01*
X158093181Y-83057583D01*
X155860830Y-85289933D01*
X155799507Y-85323418D01*
X155753751Y-85324725D01*
X155594486Y-85299500D01*
X155594481Y-85299500D01*
X155405519Y-85299500D01*
X155405514Y-85299500D01*
X155218881Y-85329059D01*
X155039163Y-85387454D01*
X154870800Y-85473240D01*
X154792280Y-85530289D01*
X154717927Y-85584310D01*
X154717925Y-85584312D01*
X154717924Y-85584312D01*
X154584312Y-85717924D01*
X154584312Y-85717925D01*
X154584310Y-85717927D01*
X154580815Y-85722738D01*
X154473240Y-85870800D01*
X154387454Y-86039163D01*
X154329059Y-86218881D01*
X154299500Y-86405513D01*
X154299500Y-86594486D01*
X154324725Y-86753751D01*
X154315770Y-86823045D01*
X154289933Y-86860830D01*
X150631286Y-90519478D01*
X150519481Y-90631282D01*
X150519479Y-90631285D01*
X150469361Y-90718094D01*
X150469359Y-90718096D01*
X150440425Y-90768209D01*
X150440424Y-90768210D01*
X150440423Y-90768215D01*
X150399499Y-90920943D01*
X150399499Y-90920945D01*
X150399499Y-91089046D01*
X150399500Y-91089059D01*
X150399500Y-107420234D01*
X150379815Y-107487273D01*
X150378602Y-107489125D01*
X150290609Y-107620814D01*
X150290602Y-107620827D01*
X150230264Y-107766498D01*
X150230261Y-107766510D01*
X150199500Y-107921153D01*
X139910500Y-107921153D01*
X139910500Y-106541835D01*
X139930185Y-106474796D01*
X139978206Y-106431350D01*
X139978547Y-106431175D01*
X140044022Y-106397815D01*
X140222365Y-106268242D01*
X140378242Y-106112365D01*
X140507815Y-105934022D01*
X140607895Y-105737606D01*
X140676015Y-105527951D01*
X140710500Y-105310222D01*
X140710500Y-105089778D01*
X140709784Y-105085258D01*
X145349502Y-105085258D01*
X145349502Y-105314741D01*
X145374448Y-105504215D01*
X145379454Y-105542238D01*
X145431750Y-105737410D01*
X145438844Y-105763887D01*
X145526652Y-105975876D01*
X145526659Y-105975890D01*
X145641394Y-106174617D01*
X145781083Y-106356661D01*
X145781091Y-106356670D01*
X145943332Y-106518911D01*
X145943340Y-106518918D01*
X145943341Y-106518919D01*
X145973206Y-106541835D01*
X146125384Y-106658607D01*
X146125387Y-106658608D01*
X146125390Y-106658611D01*
X146324114Y-106773344D01*
X146324119Y-106773346D01*
X146324125Y-106773349D01*
X146389674Y-106800500D01*
X146536115Y-106861158D01*
X146757764Y-106920548D01*
X146985268Y-106950500D01*
X146985275Y-106950500D01*
X147214729Y-106950500D01*
X147214736Y-106950500D01*
X147442240Y-106920548D01*
X147663889Y-106861158D01*
X147875890Y-106773344D01*
X148074614Y-106658611D01*
X148256663Y-106518919D01*
X148256667Y-106518914D01*
X148256672Y-106518911D01*
X148418913Y-106356670D01*
X148418916Y-106356665D01*
X148418921Y-106356661D01*
X148558613Y-106174612D01*
X148673346Y-105975888D01*
X148761160Y-105763887D01*
X148820550Y-105542238D01*
X148850502Y-105314734D01*
X148850502Y-105085266D01*
X148820550Y-104857762D01*
X148761160Y-104636113D01*
X148693229Y-104472113D01*
X148673351Y-104424123D01*
X148673348Y-104424117D01*
X148673346Y-104424112D01*
X148558613Y-104225388D01*
X148558610Y-104225385D01*
X148558609Y-104225382D01*
X148418920Y-104043338D01*
X148418913Y-104043330D01*
X148256672Y-103881089D01*
X148256663Y-103881081D01*
X148074619Y-103741392D01*
X147875892Y-103626657D01*
X147875878Y-103626650D01*
X147663889Y-103538842D01*
X147442240Y-103479452D01*
X147404217Y-103474446D01*
X147214743Y-103449500D01*
X147214736Y-103449500D01*
X146985268Y-103449500D01*
X146985260Y-103449500D01*
X146768717Y-103478009D01*
X146757764Y-103479452D01*
X146664078Y-103504554D01*
X146536114Y-103538842D01*
X146324125Y-103626650D01*
X146324111Y-103626657D01*
X146125384Y-103741392D01*
X145943340Y-103881081D01*
X145781083Y-104043338D01*
X145641394Y-104225382D01*
X145526659Y-104424109D01*
X145526652Y-104424123D01*
X145438844Y-104636112D01*
X145379455Y-104857759D01*
X145379453Y-104857770D01*
X145349502Y-105085258D01*
X140709784Y-105085258D01*
X140676015Y-104872049D01*
X140611993Y-104675007D01*
X140607896Y-104662396D01*
X140607895Y-104662393D01*
X140570421Y-104588848D01*
X140507815Y-104465978D01*
X140477396Y-104424109D01*
X140378247Y-104287641D01*
X140378243Y-104287636D01*
X140222363Y-104131756D01*
X140222358Y-104131752D01*
X140044025Y-104002187D01*
X140044024Y-104002186D01*
X140044022Y-104002185D01*
X139981096Y-103970122D01*
X139847606Y-103902104D01*
X139847603Y-103902103D01*
X139637952Y-103833985D01*
X139529086Y-103816742D01*
X139420222Y-103799500D01*
X139199778Y-103799500D01*
X139127201Y-103810995D01*
X138982047Y-103833985D01*
X138772396Y-103902103D01*
X138772393Y-103902104D01*
X138575974Y-104002187D01*
X138397641Y-104131752D01*
X138397636Y-104131756D01*
X138241756Y-104287636D01*
X138241752Y-104287641D01*
X138140318Y-104427254D01*
X138084988Y-104469920D01*
X138015375Y-104475899D01*
X137953580Y-104443293D01*
X137939682Y-104427254D01*
X137838247Y-104287641D01*
X137838243Y-104287636D01*
X137682363Y-104131756D01*
X137682358Y-104131752D01*
X137504025Y-104002187D01*
X137504024Y-104002186D01*
X137504022Y-104002185D01*
X137441096Y-103970122D01*
X137307606Y-103902104D01*
X137307603Y-103902103D01*
X137097952Y-103833985D01*
X136989086Y-103816742D01*
X136880222Y-103799500D01*
X136659778Y-103799500D01*
X136587201Y-103810995D01*
X136442047Y-103833985D01*
X136232396Y-103902103D01*
X136232393Y-103902104D01*
X136035974Y-104002187D01*
X135857641Y-104131752D01*
X135857636Y-104131756D01*
X135701756Y-104287636D01*
X135701752Y-104287641D01*
X135600318Y-104427254D01*
X135544988Y-104469920D01*
X135475375Y-104475899D01*
X135413580Y-104443293D01*
X135399682Y-104427254D01*
X135298247Y-104287641D01*
X135298243Y-104287636D01*
X135142363Y-104131756D01*
X135142358Y-104131752D01*
X134964025Y-104002187D01*
X134964024Y-104002186D01*
X134964022Y-104002185D01*
X134901096Y-103970122D01*
X134767606Y-103902104D01*
X134767603Y-103902103D01*
X134557952Y-103833985D01*
X134449086Y-103816742D01*
X134340222Y-103799500D01*
X134119778Y-103799500D01*
X134076232Y-103806397D01*
X133902045Y-103833985D01*
X133831794Y-103856811D01*
X133761953Y-103858806D01*
X133705796Y-103826561D01*
X133167590Y-103288355D01*
X133167588Y-103288352D01*
X133048717Y-103169481D01*
X133048716Y-103169480D01*
X132961904Y-103119360D01*
X132961904Y-103119359D01*
X132961900Y-103119358D01*
X132911785Y-103090423D01*
X132759057Y-103049499D01*
X132600943Y-103049499D01*
X132593347Y-103049499D01*
X132593331Y-103049500D01*
X123344635Y-103049500D01*
X123344619Y-103049499D01*
X123337023Y-103049499D01*
X123178909Y-103049499D01*
X123071553Y-103078265D01*
X123026176Y-103090424D01*
X123026175Y-103090425D01*
X122976062Y-103119359D01*
X122976061Y-103119360D01*
X122947905Y-103135616D01*
X122889251Y-103169479D01*
X122889248Y-103169481D01*
X122777446Y-103281284D01*
X122777444Y-103281286D01*
X121735742Y-104322989D01*
X120695550Y-105363181D01*
X120634227Y-105396666D01*
X120607869Y-105399500D01*
X116054575Y-105399500D01*
X115987536Y-105379815D01*
X115941781Y-105327011D01*
X115931837Y-105257853D01*
X115960862Y-105194297D01*
X115998280Y-105165015D01*
X116088845Y-105118870D01*
X116292656Y-104970793D01*
X116470793Y-104792656D01*
X116618870Y-104588845D01*
X116733241Y-104364379D01*
X116811090Y-104124785D01*
X116850500Y-103875962D01*
X116850500Y-103624038D01*
X116811090Y-103375215D01*
X116733241Y-103135621D01*
X116733239Y-103135618D01*
X116733239Y-103135616D01*
X116689360Y-103049499D01*
X116618870Y-102911155D01*
X116583626Y-102862646D01*
X116470798Y-102707350D01*
X116470794Y-102707345D01*
X116292654Y-102529205D01*
X116292649Y-102529201D01*
X116088848Y-102381132D01*
X116088847Y-102381131D01*
X116088845Y-102381130D01*
X116018747Y-102345413D01*
X115864383Y-102266760D01*
X115624785Y-102188910D01*
X115375962Y-102149500D01*
X115124038Y-102149500D01*
X115050307Y-102161178D01*
X114875214Y-102188910D01*
X114635616Y-102266760D01*
X114411151Y-102381132D01*
X114207350Y-102529201D01*
X114207345Y-102529205D01*
X114029205Y-102707345D01*
X114029201Y-102707350D01*
X113881132Y-102911151D01*
X113766760Y-103135616D01*
X113688910Y-103375214D01*
X113672400Y-103479452D01*
X113649500Y-103624038D01*
X113649500Y-103875962D01*
X113653641Y-103902104D01*
X113688910Y-104124785D01*
X113766760Y-104364383D01*
X113821652Y-104472113D01*
X113878896Y-104584461D01*
X113881132Y-104588848D01*
X114029201Y-104792649D01*
X114029205Y-104792654D01*
X114207345Y-104970794D01*
X114207350Y-104970798D01*
X114243910Y-104997360D01*
X114411155Y-105118870D01*
X114501720Y-105165015D01*
X114552516Y-105212990D01*
X114569311Y-105280810D01*
X114546774Y-105346945D01*
X114492059Y-105390397D01*
X114445425Y-105399500D01*
X111079766Y-105399500D01*
X111012727Y-105379815D01*
X111010875Y-105378602D01*
X110879185Y-105290609D01*
X110879172Y-105290602D01*
X110733501Y-105230264D01*
X110733489Y-105230261D01*
X110578845Y-105199500D01*
X110578842Y-105199500D01*
X110421158Y-105199500D01*
X110421155Y-105199500D01*
X110266510Y-105230261D01*
X110266498Y-105230264D01*
X110120827Y-105290602D01*
X110120814Y-105290609D01*
X109989711Y-105378210D01*
X109989707Y-105378213D01*
X109878213Y-105489707D01*
X109878210Y-105489711D01*
X109790609Y-105620814D01*
X109790602Y-105620827D01*
X109730264Y-105766498D01*
X109730261Y-105766510D01*
X109699500Y-105921153D01*
X101160427Y-105921153D01*
X101168368Y-105904708D01*
X101169400Y-105902626D01*
X101191580Y-105858935D01*
X101312454Y-105620827D01*
X101632592Y-104990196D01*
X101633819Y-104987847D01*
X102083629Y-104149616D01*
X102085073Y-104147004D01*
X102526910Y-103371489D01*
X102528570Y-103368666D01*
X102967742Y-102644636D01*
X102969610Y-102641655D01*
X103042271Y-102529207D01*
X103411746Y-101957421D01*
X103413633Y-101954588D01*
X103864459Y-101298490D01*
X103866338Y-101295834D01*
X104331665Y-100656232D01*
X104333380Y-100653936D01*
X104634627Y-100260289D01*
X104818919Y-100019470D01*
X104820462Y-100017494D01*
X105331879Y-99376906D01*
X105333081Y-99375424D01*
X105876156Y-98717332D01*
X105876943Y-98716390D01*
X106456602Y-98030421D01*
X106457110Y-98029825D01*
X107236617Y-97124071D01*
X113650000Y-97124071D01*
X113650000Y-97375928D01*
X113689397Y-97624669D01*
X113767219Y-97864184D01*
X113881557Y-98088583D01*
X113955748Y-98190697D01*
X113955748Y-98190698D01*
X114610690Y-97535755D01*
X114629669Y-97581574D01*
X114706275Y-97696223D01*
X114803777Y-97793725D01*
X114918426Y-97870331D01*
X114964243Y-97889308D01*
X114309300Y-98544250D01*
X114411416Y-98618442D01*
X114635815Y-98732780D01*
X114875330Y-98810602D01*
X115124072Y-98850000D01*
X115375928Y-98850000D01*
X115624669Y-98810602D01*
X115864184Y-98732780D01*
X116088575Y-98618446D01*
X116088581Y-98618442D01*
X116190697Y-98544250D01*
X116190698Y-98544250D01*
X115535756Y-97889309D01*
X115581574Y-97870331D01*
X115696223Y-97793725D01*
X115793725Y-97696223D01*
X115870331Y-97581574D01*
X115889309Y-97535756D01*
X116544250Y-98190698D01*
X116544250Y-98190697D01*
X116618442Y-98088581D01*
X116618446Y-98088575D01*
X116732780Y-97864184D01*
X116810602Y-97624669D01*
X116822649Y-97548613D01*
X116850000Y-97375928D01*
X116850000Y-97124071D01*
X116810602Y-96875330D01*
X116732780Y-96635815D01*
X116635644Y-96445176D01*
X116618442Y-96411416D01*
X116605609Y-96393753D01*
X132885000Y-96393753D01*
X132885000Y-96606246D01*
X132918242Y-96816127D01*
X132918242Y-96816130D01*
X132983904Y-97018217D01*
X133080375Y-97207550D01*
X133119728Y-97261716D01*
X133752037Y-96629408D01*
X133769075Y-96692993D01*
X133834901Y-96807007D01*
X133927993Y-96900099D01*
X134042007Y-96965925D01*
X134105590Y-96982962D01*
X133473282Y-97615269D01*
X133473282Y-97615270D01*
X133527449Y-97654624D01*
X133716782Y-97751095D01*
X133918870Y-97816757D01*
X134128754Y-97850000D01*
X134341246Y-97850000D01*
X134551127Y-97816757D01*
X134551130Y-97816757D01*
X134753217Y-97751095D01*
X134942554Y-97654622D01*
X134996716Y-97615270D01*
X134996717Y-97615270D01*
X134364408Y-96982962D01*
X134427993Y-96965925D01*
X134542007Y-96900099D01*
X134635099Y-96807007D01*
X134700925Y-96692993D01*
X134717962Y-96629408D01*
X135388181Y-97299628D01*
X135421666Y-97360951D01*
X135424500Y-97387300D01*
X135424500Y-97397865D01*
X135424501Y-97397876D01*
X135430908Y-97457483D01*
X135481202Y-97592328D01*
X135481206Y-97592335D01*
X135567452Y-97707544D01*
X135567455Y-97707547D01*
X135682664Y-97793793D01*
X135682671Y-97793797D01*
X135817517Y-97844091D01*
X135817516Y-97844091D01*
X135824444Y-97844835D01*
X135877127Y-97850500D01*
X137672872Y-97850499D01*
X137732483Y-97844091D01*
X137867331Y-97793796D01*
X137982546Y-97707546D01*
X138068796Y-97592331D01*
X138119091Y-97457483D01*
X138125500Y-97397873D01*
X138125500Y-97224500D01*
X138145185Y-97157461D01*
X138197989Y-97111706D01*
X138249500Y-97100500D01*
X142699903Y-97100500D01*
X142766942Y-97120185D01*
X142787584Y-97136819D01*
X145415425Y-99764660D01*
X145448910Y-99825983D01*
X145449361Y-99828149D01*
X145480261Y-99983491D01*
X145480264Y-99983501D01*
X145540602Y-100129172D01*
X145540609Y-100129185D01*
X145628210Y-100260288D01*
X145628213Y-100260292D01*
X145739707Y-100371786D01*
X145739711Y-100371789D01*
X145870814Y-100459390D01*
X145870827Y-100459397D01*
X146016498Y-100519735D01*
X146016503Y-100519737D01*
X146171153Y-100550499D01*
X146171156Y-100550500D01*
X146171158Y-100550500D01*
X146328844Y-100550500D01*
X146328845Y-100550499D01*
X146483497Y-100519737D01*
X146629179Y-100459394D01*
X146760289Y-100371789D01*
X146871789Y-100260289D01*
X146959394Y-100129179D01*
X147019737Y-99983497D01*
X147050500Y-99828842D01*
X147050500Y-99671158D01*
X147050500Y-99671155D01*
X147050499Y-99671153D01*
X147019738Y-99516510D01*
X147019737Y-99516503D01*
X146993964Y-99454280D01*
X146959397Y-99370827D01*
X146959390Y-99370814D01*
X146871789Y-99239711D01*
X146871786Y-99239707D01*
X146760292Y-99128213D01*
X146760288Y-99128210D01*
X146629185Y-99040609D01*
X146629172Y-99040602D01*
X146483501Y-98980264D01*
X146483491Y-98980261D01*
X146328149Y-98949361D01*
X146266238Y-98916976D01*
X146264660Y-98915425D01*
X143487590Y-96138355D01*
X143487588Y-96138352D01*
X143368717Y-96019481D01*
X143368716Y-96019480D01*
X143281904Y-95969360D01*
X143281904Y-95969359D01*
X143281900Y-95969358D01*
X143231785Y-95940423D01*
X143079057Y-95899499D01*
X142920943Y-95899499D01*
X142913347Y-95899499D01*
X142913331Y-95899500D01*
X138249499Y-95899500D01*
X138182460Y-95879815D01*
X138136705Y-95827011D01*
X138125499Y-95775500D01*
X138125499Y-95602129D01*
X138125498Y-95602123D01*
X138125497Y-95602116D01*
X138119091Y-95542517D01*
X138068796Y-95407669D01*
X138068795Y-95407668D01*
X138068793Y-95407664D01*
X137982547Y-95292455D01*
X137982544Y-95292452D01*
X137867335Y-95206206D01*
X137867328Y-95206202D01*
X137732482Y-95155908D01*
X137732483Y-95155908D01*
X137672883Y-95149501D01*
X137672881Y-95149500D01*
X137672873Y-95149500D01*
X137672864Y-95149500D01*
X135877129Y-95149500D01*
X135877123Y-95149501D01*
X135817516Y-95155908D01*
X135682671Y-95206202D01*
X135682664Y-95206206D01*
X135567455Y-95292452D01*
X135567452Y-95292455D01*
X135481206Y-95407664D01*
X135481202Y-95407671D01*
X135430908Y-95542517D01*
X135424501Y-95602116D01*
X135424501Y-95602123D01*
X135424500Y-95602135D01*
X135424500Y-95612690D01*
X135404815Y-95679729D01*
X135388181Y-95700371D01*
X134717962Y-96370590D01*
X134700925Y-96307007D01*
X134635099Y-96192993D01*
X134542007Y-96099901D01*
X134427993Y-96034075D01*
X134364409Y-96017037D01*
X134996716Y-95384728D01*
X134942550Y-95345375D01*
X134753217Y-95248904D01*
X134551129Y-95183242D01*
X134341246Y-95150000D01*
X134128754Y-95150000D01*
X133918872Y-95183242D01*
X133918869Y-95183242D01*
X133716782Y-95248904D01*
X133527439Y-95345380D01*
X133473282Y-95384727D01*
X133473282Y-95384728D01*
X134105591Y-96017037D01*
X134042007Y-96034075D01*
X133927993Y-96099901D01*
X133834901Y-96192993D01*
X133769075Y-96307007D01*
X133752037Y-96370591D01*
X133119728Y-95738282D01*
X133119727Y-95738282D01*
X133080380Y-95792439D01*
X132983904Y-95981782D01*
X132918242Y-96183869D01*
X132918242Y-96183872D01*
X132885000Y-96393753D01*
X116605609Y-96393753D01*
X116544250Y-96309301D01*
X116544250Y-96309300D01*
X115889308Y-96964242D01*
X115870331Y-96918426D01*
X115793725Y-96803777D01*
X115696223Y-96706275D01*
X115581574Y-96629669D01*
X115535754Y-96610690D01*
X116190698Y-95955748D01*
X116088583Y-95881557D01*
X115864184Y-95767219D01*
X115624669Y-95689397D01*
X115375928Y-95650000D01*
X115124072Y-95650000D01*
X114875330Y-95689397D01*
X114635815Y-95767219D01*
X114411413Y-95881559D01*
X114309301Y-95955747D01*
X114309300Y-95955748D01*
X114964243Y-96610690D01*
X114918426Y-96629669D01*
X114803777Y-96706275D01*
X114706275Y-96803777D01*
X114629669Y-96918426D01*
X114610690Y-96964243D01*
X113955748Y-96309300D01*
X113955747Y-96309301D01*
X113881559Y-96411413D01*
X113767219Y-96635815D01*
X113689397Y-96875330D01*
X113650000Y-97124071D01*
X107236617Y-97124071D01*
X107748894Y-96528827D01*
X108261482Y-95935438D01*
X108262629Y-95934132D01*
X108267775Y-95928353D01*
X108268362Y-95927952D01*
X108273920Y-95921455D01*
X108310318Y-95878907D01*
X108310538Y-95878649D01*
X108352702Y-95829842D01*
X108352704Y-95829837D01*
X108355975Y-95826051D01*
X108359158Y-95821814D01*
X110047252Y-93848537D01*
X110073346Y-93824646D01*
X110089898Y-93798686D01*
X110109917Y-93775286D01*
X110121916Y-93750181D01*
X110125178Y-93743355D01*
X110144198Y-93713528D01*
X110153469Y-93684165D01*
X110166747Y-93656385D01*
X110171838Y-93629033D01*
X110175494Y-93614406D01*
X110183877Y-93587860D01*
X110185232Y-93557092D01*
X110190867Y-93526827D01*
X110188119Y-93491552D01*
X110189677Y-93456203D01*
X110184904Y-93434633D01*
X110182350Y-93417475D01*
X110180634Y-93395440D01*
X110171365Y-93369200D01*
X110167214Y-93354690D01*
X110143094Y-93245687D01*
X109439620Y-90066495D01*
X109439430Y-90065618D01*
X108662724Y-86422502D01*
X108662566Y-86421742D01*
X108245333Y-84378711D01*
X133649500Y-84378711D01*
X133649500Y-84621288D01*
X133681161Y-84861785D01*
X133743947Y-85096104D01*
X133836773Y-85320205D01*
X133836777Y-85320214D01*
X133841884Y-85329059D01*
X133958064Y-85530289D01*
X133958066Y-85530292D01*
X133958067Y-85530293D01*
X134105733Y-85722736D01*
X134105739Y-85722743D01*
X134277256Y-85894260D01*
X134277262Y-85894265D01*
X134469711Y-86041936D01*
X134679788Y-86163224D01*
X134903900Y-86256054D01*
X135138211Y-86318838D01*
X135318586Y-86342584D01*
X135378711Y-86350500D01*
X135378712Y-86350500D01*
X135621289Y-86350500D01*
X135669388Y-86344167D01*
X135861789Y-86318838D01*
X136096100Y-86256054D01*
X136320212Y-86163224D01*
X136530289Y-86041936D01*
X136722738Y-85894265D01*
X136894265Y-85722738D01*
X137041936Y-85530289D01*
X137163224Y-85320212D01*
X137256054Y-85096100D01*
X137318838Y-84861789D01*
X137350500Y-84621288D01*
X137350500Y-84378712D01*
X137318838Y-84138211D01*
X137256054Y-83903900D01*
X137163224Y-83679788D01*
X137041936Y-83469711D01*
X136918516Y-83308866D01*
X136894266Y-83277263D01*
X136894260Y-83277256D01*
X136722743Y-83105739D01*
X136722736Y-83105733D01*
X136530293Y-82958067D01*
X136530292Y-82958066D01*
X136530289Y-82958064D01*
X136320212Y-82836776D01*
X136320205Y-82836773D01*
X136096104Y-82743947D01*
X135861785Y-82681161D01*
X135621289Y-82649500D01*
X135621288Y-82649500D01*
X135378712Y-82649500D01*
X135378711Y-82649500D01*
X135138214Y-82681161D01*
X134903895Y-82743947D01*
X134679794Y-82836773D01*
X134679785Y-82836777D01*
X134469706Y-82958067D01*
X134277263Y-83105733D01*
X134277256Y-83105739D01*
X134105739Y-83277256D01*
X134105733Y-83277263D01*
X133958067Y-83469706D01*
X133836777Y-83679785D01*
X133836773Y-83679794D01*
X133743947Y-83903895D01*
X133681161Y-84138214D01*
X133649500Y-84378711D01*
X108245333Y-84378711D01*
X107973914Y-83049677D01*
X107973693Y-83048564D01*
X107415432Y-80163599D01*
X107415149Y-80162083D01*
X107415146Y-80162069D01*
X106988874Y-77798941D01*
X106988541Y-77797007D01*
X106680882Y-75920330D01*
X106344534Y-73798423D01*
X106344574Y-73798039D01*
X106334125Y-73732759D01*
X106323962Y-73668641D01*
X106322851Y-73661630D01*
X106322478Y-73659989D01*
X106153996Y-72607356D01*
X106153805Y-72606117D01*
X106153803Y-72606104D01*
X105981298Y-71448456D01*
X105951880Y-71251039D01*
X105951427Y-71247687D01*
X105851719Y-70425278D01*
X105832950Y-70270471D01*
X105832465Y-70265692D01*
X105832262Y-70263215D01*
X105766565Y-69462113D01*
X105766227Y-69456318D01*
X105741354Y-68736194D01*
X105741301Y-68729731D01*
X105753870Y-68033168D01*
X105754064Y-68028131D01*
X105774481Y-67681407D01*
X105774724Y-67678060D01*
X105780808Y-67607393D01*
X105805526Y-67320299D01*
X105805844Y-67317101D01*
X105848591Y-66938757D01*
X105848986Y-66935625D01*
X105861789Y-66843532D01*
X105903409Y-66544147D01*
X105903860Y-66541174D01*
X105917528Y-66457887D01*
X105974771Y-66109067D01*
X105975245Y-66106369D01*
X106060382Y-65652967D01*
X106060865Y-65650538D01*
X106171046Y-65125926D01*
X106171522Y-65123763D01*
X106300091Y-64565793D01*
X106300595Y-64563694D01*
X106471750Y-63876648D01*
X106472196Y-63874918D01*
X106668761Y-63134989D01*
X106669431Y-63132571D01*
X106807035Y-62656576D01*
X106808168Y-62652880D01*
X106952514Y-62207974D01*
X106953920Y-62203888D01*
X106953924Y-62203877D01*
X107105603Y-61786724D01*
X107107258Y-61782430D01*
X107266191Y-61391975D01*
X107268177Y-61387368D01*
X107275306Y-61371709D01*
X107434277Y-61022523D01*
X107436580Y-61017742D01*
X107609773Y-60677387D01*
X107612480Y-60672358D01*
X107792682Y-60355364D01*
X107795784Y-60350206D01*
X107827507Y-60300237D01*
X107983027Y-60055264D01*
X107986519Y-60050060D01*
X108180895Y-59775833D01*
X108184798Y-59770625D01*
X108386419Y-59515822D01*
X108390703Y-59510700D01*
X108562855Y-59315795D01*
X108599870Y-59273887D01*
X108604460Y-59268968D01*
X108821506Y-59048811D01*
X108826403Y-59044110D01*
X109051785Y-58839271D01*
X109056851Y-58834909D01*
X109291133Y-58644097D01*
X109296296Y-58640116D01*
X109539959Y-58462222D01*
X109545106Y-58458661D01*
X109798748Y-58292594D01*
X109803846Y-58289430D01*
X109803848Y-58289429D01*
X110068026Y-58134199D01*
X110072946Y-58131458D01*
X110348061Y-57986226D01*
X110352665Y-57983917D01*
X110639346Y-57847750D01*
X110643608Y-57845827D01*
X110941945Y-57718066D01*
X110945883Y-57716461D01*
X111256226Y-57596308D01*
X111259829Y-57594978D01*
X111578670Y-57482983D01*
X111583382Y-57481435D01*
X112269883Y-57271022D01*
X112274872Y-57269607D01*
X113006502Y-57078781D01*
X113010000Y-57077924D01*
X113791623Y-56898652D01*
X113793771Y-56898180D01*
X114625385Y-56723531D01*
X114626056Y-56723393D01*
X115507271Y-56546240D01*
X115724235Y-56502902D01*
X115748524Y-56500500D01*
X118150724Y-56500500D01*
X118164988Y-56501323D01*
G37*
%TD.AperFunction*%
%TD*%
M02*
