%TF.GenerationSoftware,KiCad,Pcbnew,10.0.3*%
%TF.CreationDate,2026-06-15T23:18:04-04:00*%
%TF.ProjectId,tamagotchi 2,74616d61-676f-4746-9368-6920322e6b69,rev?*%
%TF.SameCoordinates,Original*%
%TF.FileFunction,Soldermask,Top*%
%TF.FilePolarity,Negative*%
%FSLAX46Y46*%
G04 Gerber Fmt 4.6, Leading zero omitted, Abs format (unit mm)*
G04 Created by KiCad (PCBNEW 10.0.3) date 2026-06-15 23:18:04*
%MOMM*%
%LPD*%
G01*
G04 APERTURE LIST*
G04 Aperture macros list*
%AMRoundRect*
0 Rectangle with rounded corners*
0 $1 Rounding radius*
0 $2 $3 $4 $5 $6 $7 $8 $9 X,Y pos of 4 corners*
0 Add a 4 corners polygon primitive as box body*
4,1,4,$2,$3,$4,$5,$6,$7,$8,$9,$2,$3,0*
0 Add four circle primitives for the rounded corners*
1,1,$1+$1,$2,$3*
1,1,$1+$1,$4,$5*
1,1,$1+$1,$6,$7*
1,1,$1+$1,$8,$9*
0 Add four rect primitives between the rounded corners*
20,1,$1+$1,$2,$3,$4,$5,0*
20,1,$1+$1,$4,$5,$6,$7,0*
20,1,$1+$1,$6,$7,$8,$9,0*
20,1,$1+$1,$8,$9,$2,$3,0*%
G04 Aperture macros list end*
%ADD10C,3.200000*%
%ADD11R,1.700000X1.700000*%
%ADD12C,1.700000*%
%ADD13C,1.600000*%
%ADD14C,0.900000*%
%ADD15R,2.200000X1.200000*%
%ADD16C,2.500000*%
%ADD17C,1.800000*%
%ADD18C,2.000000*%
%ADD19R,1.500000X4.500000*%
%ADD20C,2.200000*%
%ADD21R,0.900000X1.600000*%
%ADD22O,0.900000X1.600000*%
%ADD23C,1.524000*%
%ADD24RoundRect,0.275000X0.975000X0.275000X-0.975000X0.275000X-0.975000X-0.275000X0.975000X-0.275000X0*%
%ADD25C,1.400000*%
G04 APERTURE END LIST*
D10*
%TO.C,REF\u002A\u002A*%
X135500000Y-84500000D03*
%TD*%
D11*
%TO.C,BT1*%
X136775000Y-96500000D03*
D12*
X134235000Y-96500000D03*
%TD*%
D13*
%TO.C,SW3*%
X157000000Y-107500000D03*
X161800000Y-107500000D03*
X157000000Y-110500000D03*
X161800000Y-110500000D03*
%TD*%
D10*
%TO.C,REF\u002A\u002A*%
X106000000Y-140500000D03*
%TD*%
D14*
%TO.C,SW4*%
X172212500Y-128300000D03*
X172212500Y-121500000D03*
D15*
X169012500Y-127400000D03*
X169012500Y-124900000D03*
X169012500Y-122400000D03*
%TD*%
D13*
%TO.C,SW2*%
X161800000Y-122500000D03*
X157000000Y-122500000D03*
X161800000Y-125500000D03*
X157000000Y-125500000D03*
%TD*%
%TO.C,SW1*%
X161800000Y-115000000D03*
X157000000Y-115000000D03*
X161800000Y-118000000D03*
X157000000Y-118000000D03*
%TD*%
D16*
%TO.C,U1*%
X123899998Y-105200000D03*
X123899998Y-129000000D03*
X147100002Y-105200000D03*
X147100002Y-129000000D03*
D17*
X131690000Y-105200000D03*
X134230000Y-105200000D03*
X136770000Y-105200000D03*
X139310000Y-105200000D03*
%TD*%
D10*
%TO.C,REF\u002A\u002A*%
X165500000Y-140500000D03*
%TD*%
D18*
%TO.C,J1*%
X103295800Y-108053800D03*
X104125000Y-127810000D03*
D19*
X114500000Y-110000000D03*
X112500000Y-110000000D03*
X110500000Y-110000000D03*
X108500000Y-110000000D03*
%TD*%
D20*
%TO.C,BUZZER1*%
X115250000Y-103750000D03*
X115250000Y-97250000D03*
%TD*%
D21*
%TO.C,U4*%
X157460000Y-59500000D03*
D22*
X158730000Y-59500000D03*
X160000000Y-59500000D03*
%TD*%
D23*
%TO.C,U3*%
X129260000Y-150024000D03*
X129260000Y-147484000D03*
X129260000Y-144944000D03*
X129260000Y-142404000D03*
X129260000Y-139864000D03*
X129260000Y-137324000D03*
X129260000Y-134784000D03*
X144500000Y-134784000D03*
X144500000Y-137324000D03*
X144500000Y-139864000D03*
X144500000Y-142404000D03*
X144500000Y-144944000D03*
X144500000Y-147484000D03*
X144500000Y-150024000D03*
D24*
X132435000Y-142790000D03*
X132435000Y-144695000D03*
%TD*%
D25*
%TO.C,R1*%
X155500000Y-86500000D03*
X155500000Y-76000000D03*
%TD*%
M02*
