M48
; DRILL file KiCad 10.0.3 date 2026-06-15T23:18:06
; FORMAT={-:-/ absolute / metric / decimal}
; #@! TF.CreationDate,2026-06-15T23:18:06-04:00
; #@! TF.GenerationSoftware,Kicad,Pcbnew,10.0.3
; #@! TF.FileFunction,Plated,1,2,PTH
FMAT,2
METRIC
; #@! TA.AperFunction,Plated,PTH,ViaDrill
T1C0.300
; #@! TA.AperFunction,Plated,PTH,ComponentDrill
T2C0.600
; #@! TA.AperFunction,Plated,PTH,ComponentDrill
T3C0.700
; #@! TA.AperFunction,Plated,PTH,ComponentDrill
T4C0.889
; #@! TA.AperFunction,Plated,PTH,ComponentDrill
T5C1.000
; #@! TA.AperFunction,Plated,PTH,ComponentDrill
T6C1.000
; #@! TA.AperFunction,Plated,PTH,ComponentDrill
T7C1.050
; #@! TA.AperFunction,Plated,PTH,ComponentDrill
T8C1.400
; #@! TA.AperFunction,Plated,PTH,ComponentDrill
T9C2.000
%
G90
G05
T1
X110.5Y-106.0
X120.5Y-127.5
X121.5Y-131.5
X134.25Y-129.25
X146.25Y-99.75
X151.0Y-108.0
X154.0Y-127.5
X157.0Y-132.5
T2
X157.46Y-59.5
X158.73Y-59.5
X160.0Y-59.5
X172.213Y-121.5
X172.213Y-128.3
T3
X155.5Y-76.0
X155.5Y-86.5
T4
X129.26Y-134.784
X129.26Y-137.324
X129.26Y-139.864
X129.26Y-142.404
X129.26Y-144.944
X129.26Y-147.484
X129.26Y-150.024
X132.435Y-142.79
X132.435Y-144.695
X144.5Y-134.784
X144.5Y-137.324
X144.5Y-139.864
X144.5Y-142.404
X144.5Y-144.944
X144.5Y-147.484
X144.5Y-150.024
T5
X157.0Y-107.5
X157.0Y-110.5
X157.0Y-115.0
X157.0Y-118.0
X157.0Y-122.5
X157.0Y-125.5
X161.8Y-107.5
X161.8Y-110.5
X161.8Y-115.0
X161.8Y-118.0
X161.8Y-122.5
X161.8Y-125.5
T6
X134.235Y-96.5
X136.775Y-96.5
T7
X131.69Y-105.2
X134.23Y-105.2
X136.77Y-105.2
X139.31Y-105.2
T8
X115.25Y-97.25
X115.25Y-103.75
T9
X123.9Y-105.2
X123.9Y-129.0
X147.1Y-105.2
X147.1Y-129.0
M30
